<svg xmlns="http://www.w3.org/2000/svg" viewBox="0 0 511.882 511.882"><path fill="#444" d="M389.898 430.449l-86.29-57.527a8.887 8.887 0 00-11.886 1.929l-25.125 32.302c-8.143 10.612-22.839 13.641-34.514 7.113l-4.645-2.551c-16.759-9.143-37.623-20.517-79.04-61.934-41.417-41.417-52.8-62.281-61.934-79.049l-2.56-4.645c-6.527-11.672-3.498-26.366 7.113-34.505l32.293-25.134a8.878 8.878 0 001.929-11.886l-57.518-86.299a8.842 8.842 0 00-11.886-2.679l-36.105 21.65a34.738 34.738 0 00-15.899 20.489c-11.858 43.182-1.883 118.793 112.96 233.646s190.437 124.846 233.655 112.978a34.74 34.74 0 0020.489-15.909l21.641-36.105a8.83 8.83 0 00-2.678-11.884z" class="active-path" data-old_color="#000000" data-original="#000000"/><path fill="#444" d="M510.425 15.156a4.973 4.973 0 00-3.572-1.456H123.767a4.973 4.973 0 00-5.028 5.028V151.83l21.723 32.585c7.835 11.838 5.26 27.708-5.915 36.462l-32.265 25.134a8.723 8.723 0 00-2.359 11.173l2.633 4.8a230.534 230.534 0 0030.51 44.471h373.787a4.993 4.993 0 005.029-4.919V18.728a4.97 4.97 0 00-1.457-3.572zM250.661 181.434v-.046l-93.659 100.343a9.144 9.144 0 01-13.376-12.47l93.659-100.297a9.144 9.144 0 0113.376 12.47zm64.649-7.204a30.305 30.305 0 01-18.286-6.034L144.211 52.319a9.16 9.16 0 0111.1-14.574l152.75 115.877a12.336 12.336 0 0014.501 0L475.356 37.745a9.147 9.147 0 0111.054 14.574L333.596 168.196a30.303 30.303 0 01-18.286 6.034zm171.813 107.95a9.142 9.142 0 01-12.928-.448l-93.65-100.343a9.143 9.143 0 0113.394-12.425l93.632 100.297a9.143 9.143 0 01-.448 12.919z" class="active-path" data-old_color="#000000" data-original="#000000"/></svg>