<svg xmlns="http://www.w3.org/2000/svg" version="1.1" xmlns:xlink="http://www.w3.org/1999/xlink" xmlns:svgjs="http://svgjs.com/svgjs" height="38.09567417915804" width="290.6499938964844"><defs id="SvgjsDefs1042"></defs><g id="SvgjsG1043" rel="mainfill" name="main_text" xmlns:name="main_text" transform="translate(81.18000000715256,-210.95716779323348)" fill="#000"><path d="M25.48 227.95C25.48 219.03 19.19 216.73 11.23 216.73L0.99 216.73C0.82 217.35 0.86 218.07 0.86 218.70L2.01 219.26C2.86 219.66 3.69 220.38 3.69 221.93L3.69 230.68L3.56 236.15C3.52 237.07 3.03 237.27 2.30 237.47L0.82 237.89C0.82 238.72 0.92 239.37 1.05 240L11.42 240C19.72 240 25.48 236.02 25.48 227.95ZM19.55 228.71C19.55 233.55 17.09 237.00 11.79 237.00L9.55 237.00L9.35 230.75L9.35 219.75L11.13 219.75C16.69 219.75 19.55 223.44 19.55 228.71ZM27.42 240L38.19 240C38.35 239.34 38.39 238.78 38.39 237.93L36.21 237.30C35.88 237.20 35.72 236.84 35.69 235.82L35.65 230.98L35.65 223.18C35.65 221.86 34.99 221.60 33.91 221.60C32.30 221.60 29.46 221.83 27.29 222.29L27.29 224.76L30.12 224.76L30.12 230.98L30.02 236.08C30.02 236.87 29.86 237.20 29.23 237.37L27.29 237.93C27.29 238.85 27.32 239.57 27.42 240ZM32.72 219.16C33.45 219.16 35.95 216.46 35.95 215.97C35.95 215.31 33.32 212.77 32.72 212.77C32.06 212.77 29.56 215.21 29.56 215.97C29.56 216.59 32.03 219.16 32.72 219.16ZM62.15 237.99L60.28 237.47C59.92 237.37 59.85 237.00 59.82 236.41L59.72 230.98L59.72 227.52C59.72 224.13 59.65 221.63 53.56 221.63C50.73 221.63 48.89 222.88 47.64 223.84L47.64 222.75C47.64 221.99 47.31 221.60 46.35 221.60C44.74 221.60 41.87 221.83 39.70 222.29L39.70 224.72L42.27 224.72L42.27 230.98L42.17 236.25C42.17 237.07 42.01 237.33 41.38 237.53L39.80 238.06C39.80 238.72 39.83 239.51 39.90 240L49.68 240C49.84 239.34 49.87 239.08 49.87 237.93L48.36 237.30C47.90 237.10 47.83 236.48 47.83 235.82L47.77 230.98L47.77 226.01C48.76 225.65 50.40 225.45 51.82 225.45C54.19 225.45 54.22 227.33 54.22 229.30L54.22 230.98L54.15 236.28C54.15 236.77 54.09 237.20 53.53 237.47L52.38 237.99C52.31 238.85 52.38 239.31 52.51 240L61.89 240C62.09 239.47 62.15 239.21 62.15 237.99ZM82.66 230.78C82.66 224.72 79.54 221.53 73.31 221.53C67.95 221.53 63.80 226.54 63.80 231.28C63.80 237.43 67.26 240.43 73.02 240.43C78.58 240.43 82.66 235.52 82.66 230.78ZM76.80 231.11C76.80 234.37 76.15 237.10 73.54 237.10C70.42 237.10 69.59 233.91 69.59 230.82C69.59 228.44 69.79 224.79 72.95 224.79C76.15 224.79 76.80 228.18 76.80 231.11ZM105.94 238.75L104.88 235.19C102.74 235.65 100.87 235.98 98.63 235.98C93.89 235.98 90.66 233.12 90.66 228.18C90.66 221.86 93.76 219.72 97.87 219.72C100.74 219.72 102.68 221.04 103.67 223.57C104.62 223.67 105.25 223.61 105.81 223.54L105.81 217.88C103.07 216.69 101.59 216.33 98.00 216.33C90.66 216.33 84.80 221.73 84.80 228.51C84.80 236.58 89.81 240.23 98.14 240.23C101.40 240.23 103.30 239.80 105.94 238.75ZM126.09 238.19L125.89 236.68L123.65 236.68L123.42 230.98L123.42 226.63C123.42 221.60 118.55 221.47 115.62 221.50C113.51 221.50 111.30 221.86 108.87 222.75L109.82 226.70C112.06 226.17 113.61 226.01 114.73 226.01C117.43 226.01 117.95 226.50 117.95 227.82L117.95 229.89C117.03 229.99 116.01 230.09 114.99 230.22C111.37 230.72 107.75 231.97 107.75 236.15C107.75 239.01 109.66 240.30 112.65 240.30C114.89 240.30 116.93 238.62 118.05 237.40C118.25 239.70 119.21 240.30 121.71 240.30C123.06 240.30 124.74 239.44 126.09 238.19ZM117.95 235.72C117.07 236.05 115.91 236.25 114.93 236.25C113.84 236.25 113.21 235.69 113.21 234.77C113.21 233.38 114.40 232.86 116.18 232.59C116.80 232.49 117.43 232.46 117.95 232.40ZM147.94 230.78C147.94 223.24 144.59 221.66 139.98 221.66C138.50 221.66 136.82 222.35 135.60 223.61L135.60 223.05C135.60 222.12 135.07 221.60 134.15 221.60C131.68 221.60 128.98 222.03 127.50 222.39L127.50 224.76L130.27 224.76L130.27 231.18L130.13 242.80C130.13 243.52 129.81 244.44 128.65 244.77L127.40 245.17C127.40 245.79 127.30 246.32 127.57 247.24L139.55 247.24C139.85 246.16 139.75 245.86 139.75 245.04L137.44 244.51C136.62 244.31 136.09 244.28 136.09 243.19L136.03 240.23C136.49 240.26 137.05 240.26 137.77 240.26C142.88 240.26 147.94 238.32 147.94 230.78ZM142.12 231.37C142.12 234.77 140.80 237.63 137.94 237.63C136.92 237.63 136.39 237.50 135.93 237.40L135.80 231.24L135.80 225.51C136.46 225.32 137.54 225.09 138.56 225.09C140.90 225.09 142.12 227.49 142.12 231.37ZM149.72 240L160.49 240C160.65 239.34 160.69 238.78 160.69 237.93L158.51 237.30C158.18 237.20 158.02 236.84 157.99 235.82L157.95 230.98L157.95 223.18C157.95 221.86 157.29 221.60 156.21 221.60C154.59 221.60 151.76 221.83 149.59 222.29L149.59 224.76L152.42 224.76L152.42 230.98L152.32 236.08C152.32 236.87 152.16 237.20 151.53 237.37L149.59 237.93C149.59 238.85 149.62 239.57 149.72 240ZM155.02 219.16C155.75 219.16 158.25 216.46 158.25 215.97C158.25 215.31 155.62 212.77 155.02 212.77C154.36 212.77 151.86 215.21 151.86 215.97C151.86 216.59 154.33 219.16 155.02 219.16ZM176.26 235.39C174.84 235.72 173.62 235.88 172.64 235.88C171.09 235.88 170.40 235.33 170.36 234.37L170.23 230.85L170.23 225.32L176.26 225.32L176.26 222.03L170.23 222.03L170.23 218.34L168.95 218.34L162.00 223.24L162.00 225.32L164.64 225.32L164.54 234.47C164.50 238.88 166.02 240.36 169.34 240.36C173.03 240.36 175.30 239.14 176.91 237.83ZM196.77 238.19L196.57 236.68L194.33 236.68L194.10 230.98L194.10 226.63C194.10 221.60 189.23 221.47 186.30 221.50C184.19 221.50 181.98 221.86 179.55 222.75L180.50 226.70C182.74 226.17 184.29 226.01 185.41 226.01C188.11 226.01 188.63 226.50 188.63 227.82L188.63 229.89C187.71 229.99 186.69 230.09 185.67 230.22C182.05 230.72 178.43 231.97 178.43 236.15C178.43 239.01 180.34 240.30 183.33 240.30C185.57 240.30 187.61 238.62 188.73 237.40C188.93 239.70 189.89 240.30 192.39 240.30C193.74 240.30 195.42 239.44 196.77 238.19ZM188.63 235.72C187.75 236.05 186.59 236.25 185.61 236.25C184.52 236.25 183.89 235.69 183.89 234.77C183.89 233.38 185.08 232.86 186.86 232.59C187.48 232.49 188.11 232.46 188.63 232.40ZM209.47 237.93L207.30 237.30C206.84 237.17 206.81 236.48 206.77 235.82L206.74 230.98L206.74 216.43C206.74 215.11 206.08 214.85 205.00 214.85C203.38 214.85 200.19 215.11 198.48 215.54L198.48 218.01L201.21 218.01L201.21 230.98L201.11 236.25C201.11 237.07 200.95 237.37 200.32 237.53L198.38 238.06C198.38 238.98 198.31 239.21 198.51 240L209.28 240C209.44 239.34 209.47 239.08 209.47 237.93Z" fill="#ffffff" style="fill: #000;"></path></g><g id="SvgjsG1044" rel="mainfill" name="symbol" xmlns:name="symbol_mainfill" transform="translate(0.26685240365605273,-28.773230851082623) scale(0.6688027353376798)" fill="#ffffff"><path d="M47.913,84.541c0,2.188-5.008,3.964-11.188,3.964c-6.176,0-11.186-1.775-11.186-3.964v4.145  c0,2.189,5.009,3.964,11.186,3.964c6.18,0,11.188-1.774,11.188-3.964V84.541z" fill="#ffffff" style="fill: #000;"></path><path d="M47.913,74.785c0,2.19-5.008,3.965-11.188,3.965c-6.176,0-11.186-1.774-11.186-3.965c0-2.189,5.009-3.964,11.186-3.964  C42.904,70.821,47.913,72.596,47.913,74.785" fill="#ffffff" style="fill: #000;"></path><path d="M47.913,77.591c0,2.189-5.008,3.964-11.188,3.964c-6.176,0-11.186-1.774-11.186-3.964v4.145  c0,2.189,5.009,3.964,11.186,3.964c6.18,0,11.188-1.774,11.188-3.964V77.591z" fill="#ffffff" style="fill: #000;"></path><path d="M47.913,91.874c0,2.189-5.008,3.964-11.188,3.964c-6.176,0-11.186-1.774-11.186-3.964v4.146  c0,2.188,5.009,3.962,11.186,3.962c6.18,0,11.188-1.774,11.188-3.962V91.874z" fill="#ffffff" style="fill: #000;"></path><path d="M73.851,84.541c0,2.188-5.007,3.964-11.188,3.964c-6.175,0-11.187-1.775-11.187-3.964v4.145  c0,2.189,5.009,3.964,11.187,3.964c6.181,0,11.188-1.774,11.188-3.964V84.541z" fill="#ffffff" style="fill: #000;"></path><path d="M73.851,77.591c0,2.189-5.007,3.964-11.188,3.964c-6.175,0-11.187-1.774-11.187-3.964v4.145  c0,2.189,5.009,3.964,11.187,3.964c6.181,0,11.188-1.774,11.188-3.964V77.591z" fill="#ffffff" style="fill: #000;"></path><path d="M73.851,70.641c0,2.189-5.007,3.965-11.188,3.965c-6.175,0-11.187-1.775-11.187-3.965v4.145  c0,2.19,5.009,3.965,11.187,3.965c6.181,0,11.188-1.774,11.188-3.965V70.641z" fill="#ffffff" style="fill:#000;"></path><path d="M73.851,60.886c0,2.189-5.007,3.964-11.188,3.964c-6.175,0-11.187-1.774-11.187-3.964c0-2.19,5.009-3.965,11.187-3.965  C68.844,56.921,73.851,58.695,73.851,60.886" fill="#ffffff" style="fill:#000;"></path><path d="M73.851,63.69c0,2.19-5.007,3.965-11.188,3.965c-6.175,0-11.187-1.774-11.187-3.965v4.146c0,2.188,5.009,3.964,11.187,3.964  c6.181,0,11.188-1.775,11.188-3.964V63.69z" fill="#ffffff" style="fill: #000;"></path><path d="M73.851,91.874c0,2.189-5.007,3.964-11.188,3.964c-6.175,0-11.187-1.774-11.187-3.964v4.146  c0,2.188,5.009,3.962,11.187,3.962c6.181,0,11.188-1.774,11.188-3.962V91.874z" fill="#ffffff" style="fill: #000;"></path><path d="M99.78,84.541c0,2.188-5.006,3.964-11.186,3.964c-6.176,0-11.188-1.775-11.188-3.964v4.145  c0,2.189,5.009,3.964,11.188,3.964s11.186-1.774,11.186-3.964V84.541z" fill="#ffffff" style="fill: #000;"></path><path d="M99.78,77.591c0,2.189-5.006,3.964-11.186,3.964c-6.176,0-11.188-1.774-11.188-3.964v4.145  c0,2.189,5.009,3.964,11.188,3.964s11.186-1.774,11.186-3.964V77.591z" fill="#ffffff" style="fill: #000;"></path><path d="M99.78,70.641c0,2.189-5.006,3.965-11.186,3.965c-6.176,0-11.188-1.775-11.188-3.965v4.145c0,2.19,5.009,3.965,11.188,3.965  s11.186-1.774,11.186-3.965V70.641z" fill="#ffffff" style="fill: #000;"></path><path d="M99.78,63.69c0,2.19-5.006,3.965-11.186,3.965c-6.176,0-11.188-1.774-11.188-3.965v4.146c0,2.188,5.009,3.964,11.188,3.964  s11.186-1.775,11.186-3.964V63.69z" fill="#ffffff" style="fill: #000;"></path><path d="M99.78,56.741c0,2.189-5.006,3.964-11.186,3.964c-6.176,0-11.188-1.774-11.188-3.964v4.145  c0,2.189,5.009,3.964,11.188,3.964s11.186-1.774,11.186-3.964V56.741z" fill="#ffffff" style="fill: #000;"></path><path d="M99.78,46.986c0,2.189-5.006,3.964-11.186,3.964c-6.176,0-11.188-1.775-11.188-3.964c0-2.19,5.009-3.964,11.188-3.964  S99.78,44.796,99.78,46.986" fill="#ffffff" style="fill: #000;"></path><path d="M99.78,49.791c0,2.189-5.006,3.964-11.186,3.964c-6.176,0-11.188-1.774-11.188-3.964v4.145c0,2.19,5.009,3.965,11.188,3.965  s11.186-1.774,11.186-3.965V49.791z" fill="#ffffff" style="fill: #000;"></path><path d="M99.78,91.874c0,2.189-5.006,3.964-11.186,3.964c-6.176,0-11.188-1.774-11.188-3.964v4.146  c0,2.188,5.009,3.962,11.188,3.962s11.186-1.774,11.186-3.962V91.874z" fill="#ffffff" style="fill: #000;"></path><path d="M21.975,89.066c0,2.192-5.009,3.967-11.187,3.967c-6.177,0-11.187-1.774-11.187-3.967c0-2.188,5.01-3.962,11.187-3.962  C16.966,85.104,21.975,86.879,21.975,89.066" fill="#ffffff" style="fill: #000;"></path><path d="M21.975,91.874c0,2.188-5.009,3.962-11.187,3.962c-6.177,0-11.187-1.774-11.187-3.962v4.144c0,2.19,5.01,3.965,11.187,3.965  c6.178,0,11.187-1.774,11.187-3.965V91.874z" fill="#ffffff" style="fill: #000;"></path></g></svg>