<?xml version="1.0" standalone="no"?>
<!DOCTYPE svg PUBLIC "-//W3C//DTD SVG 1.1//EN" "http://www.w3.org/Graphics/SVG/1.1/DTD/svg11.dtd" >
<svg xmlns="http://www.w3.org/2000/svg" xmlns:xlink="http://www.w3.org/1999/xlink" version="1.1">
<metadata></metadata>
<defs>
<font id="astakhov_first_two_stripes_Rg" horiz-adv-x="1053" >
<font-face units-per-em="2048" ascent="1638" descent="-410" />
<missing-glyph horiz-adv-x="508" />
<glyph unicode="&#xd;" horiz-adv-x="508" />
<glyph horiz-adv-x="0" />
<glyph horiz-adv-x="0" />
<glyph unicode=" "  horiz-adv-x="508" />
<glyph unicode="&#x09;" horiz-adv-x="508" />
<glyph unicode="&#xa0;" horiz-adv-x="508" />
<glyph unicode="!" horiz-adv-x="565" d="M120 0v308h323v-308h-323zM120 1812l323 50l-21 -1359h-281z" />
<glyph unicode="&#x22;" horiz-adv-x="968" d="M120 1940l296 25l-34 -629l-228 -25zM552 1940l296 25l-34 -629l-228 -25z" />
<glyph unicode="#" horiz-adv-x="1349" d="M80 693l50 145h154l51 244h-213l50 145h194l132 636l237 -47l-133 -589h245l132 636l237 -47l-133 -589h184l-50 -145h-165l-51 -244h224l-50 -145h-205l-144 -693l-237 47l145 646h-245l-144 -693l-237 47l145 646h-173z" />
<glyph unicode="$" d="M120 386v253l282 -50v-203q0 -127 123 -127t123 127v214q0 137 -264 319t-264 442v176q0 343 289 387v119l232 50v-169q290 -44 290 -387v-253l-283 50v203q0 126 -122 127h-2q-122 0 -122 -127v-171q0 -126 265 -307q264 -182 264 -435v-238q0 -344 -290 -387v-179 l-232 -50v229q-289 44 -289 387z" />
<glyph unicode="%" horiz-adv-x="1697" d="M125 1069v674q0 232 237 232q238 0 238 -232v-674q0 -232 -238 -232h-2q-235 0 -235 232zM383 0l721 1863h175l-720 -1863h-176zM1095 233v674q0 232 237 232q238 0 238 -232v-674q0 -232 -238 -232h-2q-235 0 -235 232z" />
<glyph unicode="&#x26;" horiz-adv-x="1183" d="M120 413v327q0 193 155 273q-155 80 -155 273v295q0 383 317 410q43 3 88 3q38 0 78 -2q330 -22 330 -411v-84l-283 50v34l-70 131q-24 4 -51 4q-23 0 -48 -3q-78 -9 -78 -132v-295q0 -94 77 -125q20 -8 46 -9h124v84l283 50v-134h180l-50 -279h-130v-460 q0 -396 -345 -411q-34 -1 -65 -1q-61 0 -106 5q-297 35 -297 407z" />
<glyph unicode="'" horiz-adv-x="536" d="M120 1940l296 25l-34 -629l-228 -25z" />
<glyph unicode="(" horiz-adv-x="544" d="M120 149v1566q0 390 392 395l-50 -223l-60 -128v-1655l60 -127l50 -224q-392 5 -392 396z" />
<glyph unicode=")" horiz-adv-x="544" d="M30 -247l50 224l60 127v1655l-60 128l-50 223q392 -5 392 -395v-1566q0 -391 -392 -396z" />
<glyph unicode="*" horiz-adv-x="1012" d="M119 1680q0 27 11 61q30 98 98 98q30 0 68 -20q62 -32 179 -159q-88 160 -96 227q-1 12 -1 23q0 104 126 105h4q125 0 125 -99q0 -16 -3 -34q-12 -70 -96 -220q125 133 187 161q33 17 61 17q67 0 99 -96q12 -36 12 -65q0 -81 -100 -96q-16 -2 -37 -2q-71 0 -202 26 q167 -78 212 -127q38 -41 38 -80q0 -51 -64 -98q-51 -37 -91 -37q-55 0 -90 71q-31 62 -51 235q-23 -183 -56 -241q-35 -64 -89 -64q-38 0 -88 34q-67 48 -67 98q0 41 44 85q49 49 207 120q-130 -25 -201 -25q-27 0 -45 4q-94 18 -94 98z" />
<glyph unicode="+" horiz-adv-x="1047" d="M119 1099h289v238l232 50v-288h238l50 -233h-288v-238l-232 -50v288h-239z" />
<glyph unicode="," horiz-adv-x="591" d="M120 1v326h351v-288l-108 -366h-183l58 328h-118z" />
<glyph unicode="-" horiz-adv-x="786" d="M50 841l50 235h636l-50 -235h-636z" />
<glyph unicode="." horiz-adv-x="565" d="M120 0v327h325v-327h-325z" />
<glyph unicode="/" horiz-adv-x="748" d="M60 0l390 1863h236l-390 -1863h-236z" />
<glyph unicode="0" d="M120 361v1140q0 393 405 393q406 0 406 -393v-1140q0 -392 -406 -392q-405 0 -405 392z" />
<glyph unicode="1" horiz-adv-x="1073" d="M130 0l50 265h214v1332h-264l50 265h497v-1597h264l-50 -265h-761z" />
<glyph unicode="2" horiz-adv-x="1073" d="M130 0v400q0 252 264 431q265 180 266 305v366q0 126 -122 126h-2q-123 0 -123 -126v-203l-283 -47v250q0 392 406 392q407 0 407 -392v-373q0 -256 -265 -437q-265 -179 -265 -315v-112h530l-50 -265h-763z" />
<glyph unicode="3" horiz-adv-x="1073" d="M130 362v250l279 -50v-201q0 -130 126 -130q127 0 127 130v340q0 102 -45 121q-24 10 -74 10h-46l50 265h18q40 0 60 11q37 20 37 114v278q0 102 -45 121q-24 9 -77 9q-14 0 -29 -1q-102 -3 -102 -129v-198l-279 -50v250q0 270 165 351q114 57 235 57q112 0 228 -49 q183 -76 183 -359v-281q0 -184 -155 -260q155 -76 155 -260v-339q0 -244 -132 -333q-83 -56 -259 -60h-24q-156 0 -242 48q-154 83 -154 345z" />
<glyph unicode="4" horiz-adv-x="1073" d="M52 456v236l495 1170h360v-1141h109l-50 -265h-59v-456l-282 50v406h-573z" />
<glyph unicode="5" horiz-adv-x="1073" d="M130 360v221l282 -50v-171q0 -122 99 -126h20q59 0 84 9q44 19 44 117v529q0 99 -44 117q-24 11 -77 11q-13 0 -27 -1q-86 -4 -96 -73l-3 -25l-282 -50l42 994h769l-50 -265h-448l-20 -401q72 79 196 79q17 0 35 -2q147 -12 224 -113q63 -82 63 -271v-529 q0 -353 -297 -386q-45 -5 -105 -5q-31 0 -65 1q-344 14 -344 390z" />
<glyph unicode="6" horiz-adv-x="1073" d="M130 361v1140q0 393 406 393q407 0 407 -393v-250l-283 48v202q0 127 -123 127h-2q-122 0 -122 -127v-453q79 67 195 67q21 0 43 -1q136 -14 213 -93q79 -80 79 -290v-370q0 -392 -407 -392q-406 0 -406 392z" />
<glyph unicode="7" horiz-adv-x="1073" d="M121 1597l50 265h787v-191l-396 -1671l-290 47l378 1550h-529z" />
<glyph unicode="8" horiz-adv-x="1073" d="M130 362v339q0 184 155 260q-155 76 -155 260v281q0 270 165 351q114 57 235 57q112 0 228 -49q183 -76 183 -359v-281q0 -184 -155 -260q155 -76 155 -260v-339q0 -244 -132 -333q-83 -56 -259 -60h-24q-156 0 -242 48q-154 83 -154 345z" />
<glyph unicode="9" horiz-adv-x="1073" d="M130 361v251l282 -50v-201q0 -126 123 -127h2q122 0 122 127v454q-81 -68 -198 -68q-19 0 -40 2q-135 13 -212 92q-79 81 -79 290v370q0 392 406 393q405 0 405 -393v-1140q0 -392 -406 -392q-405 0 -405 392z" />
<glyph unicode=":" horiz-adv-x="564" d="M120 0v327h324v-327h-324zM120 1005v326h324v-326h-324z" />
<glyph unicode=";" horiz-adv-x="591" d="M120 1v326h351v-288l-108 -366h-183l58 328h-118zM120 1005v326h325v-326h-325z" />
<glyph unicode="&#x3c;" horiz-adv-x="1047" d="M120 792v266l805 414l-50 -252l-536 -293l536 -284l50 -251z" />
<glyph unicode="=" horiz-adv-x="1047" d="M120 633l50 199h755l-50 -199h-755zM120 1029l50 200h755l-50 -200h-755z" />
<glyph unicode="&#x3e;" horiz-adv-x="1047" d="M120 392l50 251l536 284l-536 293l-50 252l805 -414v-266z" />
<glyph unicode="?" d="M120 1252v250q0 392 406 392q405 0 405 -392v-187q0 -237 -199 -425q-198 -188 -198 -328v-42l-282 50v15q0 233 198 420q199 187 199 316v181q0 126 -122 126h-2q-123 0 -123 -126v-200zM236 0v309h324v-309h-324z" />
<glyph unicode="@" horiz-adv-x="1483" d="M130 566v761q0 578 611 578q610 0 610 -565v-102h-1v-75q0 -258 -267 -258h-108v-327q0 -259 -268 -259q-267 0 -267 259v244q0 257 267 257h82v249q0 83 -81 83h-2q-80 0 -80 -83v-16l-186 -50v66q0 258 267 258q268 0 268 -258v-249h108q81 0 81 84v177q0 391 -423 391 q-424 0 -424 -404v-761q0 -391 424 -391q423 0 423 403v41h187v-41q0 -577 -610 -577q-611 0 -611 565z" />
<glyph unicode="A" horiz-adv-x="1065" d="M0 395l50 266h82l199 1201h388l304 -1962l-283 50l-71 445h-289l-56 -345l-284 -50l55 395h-95z" />
<glyph unicode="B" horiz-adv-x="1044" d="M0 798l50 266h81v798l435 -1q376 0 376 -391v-280q0 -183 -155 -259q155 -76 155 -259v-281q0 -390 -376 -390q-6 0 -18 -1h-417v798h-131z" />
<glyph unicode="C" horiz-adv-x="1023" d="M110 361v1140q0 392 405 392q406 0 406 -392v-251l-282 50v201q0 126 -123 127h-2q-122 0 -122 -127v-1140q0 -127 123 -127q124 0 124 127v201l282 50v-251q0 -392 -406 -393q-405 0 -405 393z" />
<glyph unicode="D" horiz-adv-x="1054" d="M0 1597l50 265h81l436 -1q377 0 377 -391v-1079q0 -390 -377 -390q-6 0 -18 -1h-418v1597h-131z" />
<glyph unicode="E" horiz-adv-x="1045" d="M0 798l50 266h81v798h832l-50 -265h-500v-533h337l-50 -266h-287v-533h400l50 -265h-732v798h-131z" />
<glyph unicode="F" horiz-adv-x="1025" d="M0 798l50 266h81v798h832l-50 -265h-500v-533h337l-50 -266h-287v-748l-282 -50v798h-131z" />
<glyph unicode="G" horiz-adv-x="1033" d="M110 361v1140q0 392 405 392q406 0 406 -392v-251l-282 48v203q0 126 -123 127h-2q-122 0 -122 -127v-1140q0 -127 123 -127q124 0 124 127v437h-131l50 266h363v-703q0 -392 -406 -393q-405 0 -405 393z" />
<glyph unicode="H" horiz-adv-x="1074" d="M0 798l50 266h81v898l282 -50v-848h247v748l282 50v-1962l-282 50v848h-247v-748l-282 -50v798h-131z" />
<glyph unicode="I" horiz-adv-x="553" d="M135 0v1812l281 50v-1862h-281z" />
<glyph unicode="J" horiz-adv-x="973" d="M30 360v110l282 -50v-60q0 -126 124 -126q123 0 123 126v1236h-131l50 266h363v-1502q0 -392 -405 -392q-406 1 -406 392z" />
<glyph unicode="K" horiz-adv-x="1057" d="M130 0v1962l282 -50v-879l301 779l302 50l-373 -931l412 -1027l-303 50l-339 874v-778z" />
<glyph unicode="L" horiz-adv-x="904" d="M130 0v1862l282 -50v-1547h400l50 -265h-732z" />
<glyph unicode="M" horiz-adv-x="1418" d="M130 0v1962l283 -50l332 -1325l328 1225l283 50v-1962l-271 50v1095l-241 -995h-192l-248 995v-995z" />
<glyph unicode="N" horiz-adv-x="1073" d="M130 0v1962l283 -50l268 -1130v1030l262 50v-1962l-283 50l-258 1096v-996z" />
<glyph unicode="O" horiz-adv-x="1033" d="M110 361v1140q0 392 405 392q406 0 406 -392v-1140q0 -392 -406 -393q-405 0 -405 393z" />
<glyph unicode="P" horiz-adv-x="1000" d="M0 798l50 266h81v798l411 -1q376 0 376 -391v-280q0 -288 -270 -372q-65 -20 -189 -20h-46v-748l-282 -50v798h-131z" />
<glyph unicode="Q" horiz-adv-x="1105" d="M111 361v1140q0 392 406 392q405 0 405 -392v-1140q0 -116 -36 -198l190 -189l-234 -164l-175 175q-66 -17 -150 -17q-406 1 -406 393z" />
<glyph unicode="R" horiz-adv-x="1082" d="M0 814l50 250h81v798l411 -1q376 0 376 -391v-280q0 -246 -222 -324l354 -966l-313 50l-288 869l-36 -5v-764l-282 -50v814h-131z" />
<glyph unicode="S" horiz-adv-x="1033" d="M110 361v251l282 -50v-201q0 -127 124 -127q123 0 123 127v213q0 135 -265 315q-264 180 -264 437v175q0 392 405 392q406 0 406 -392v-251l-282 50v201q0 126 -123 127h-2q-122 0 -122 -127v-169q0 -124 265 -305q264 -180 264 -431v-235q0 -393 -405 -393 q-406 1 -406 393z" />
<glyph unicode="T" horiz-adv-x="913" d="M50 1597l50 265h761l-50 -265h-214v-1597h-283v1597h-264z" />
<glyph unicode="U" d="M120 360v1602l282 -50v-1552q0 -126 123 -126q124 0 124 126v1452l282 50v-1502q0 -391 -406 -392q-405 0 -405 392z" />
<glyph unicode="V" horiz-adv-x="1065" d="M40 1962l283 -50l186 -1268h60l170 1168l284 50l-291 -1862h-388z" />
<glyph unicode="W" horiz-adv-x="1418" d="M130 0v1962l271 -50v-1095l241 995h192l248 -995v995l274 50v-1962l-283 50l-332 1325l-328 -1225z" />
<glyph unicode="X" horiz-adv-x="1084" d="M40 1962l280 -47l220 -577l184 477l284 47l-325 -931l359 -1031l-280 47l-222 577l-183 -477l-284 -47l325 931z" />
<glyph unicode="Y" horiz-adv-x="1100" d="M40 1962l304 -50l222 -776l193 676l299 50l-342 -1056l-8 -23v-783h-283v783l-9 23z" />
<glyph unicode="Z" horiz-adv-x="880" d="M80 0v161l178 670h-79l50 201h83l151 565h-370l50 265h638v-161l-179 -669h81l-50 -201h-84l-151 -566h400l-50 -265h-668z" />
<glyph unicode="[" horiz-adv-x="547" d="M130 -247v2257h385l-50 -213h-103v-1830h103l50 -214h-385z" />
<glyph unicode="\" horiz-adv-x="748" d="M60 1863h236l390 -1863h-236z" />
<glyph unicode="]" horiz-adv-x="547" d="M30 -247l50 214h103v1830h-103l-50 213h385v-2257h-385z" />
<glyph unicode="^" horiz-adv-x="1157" d="M100 1172l351 809h255l351 -809l-254 50l-225 468l-224 -468z" />
<glyph unicode="_" horiz-adv-x="1032" d="M0 -318l50 213h982l-50 -213h-982z" />
<glyph unicode="`" horiz-adv-x="756" d="M130 1983l222 77l274 -255h-222z" />
<glyph unicode="a" horiz-adv-x="1065" d="M0 395l50 266h82l199 1201h388l304 -1962l-283 50l-71 445h-289l-56 -345l-284 -50l55 395h-95z" />
<glyph unicode="b" horiz-adv-x="1044" d="M0 798l50 266h81v798l435 -1q376 0 376 -391v-280q0 -183 -155 -259q155 -76 155 -259v-281q0 -390 -376 -390q-6 0 -18 -1h-417v798h-131z" />
<glyph unicode="c" horiz-adv-x="1023" d="M110 361v1140q0 392 405 392q406 0 406 -392v-251l-282 50v201q0 126 -123 127h-2q-122 0 -122 -127v-1140q0 -127 123 -127q124 0 124 127v201l282 50v-251q0 -392 -406 -393q-405 0 -405 393z" />
<glyph unicode="d" horiz-adv-x="1054" d="M0 1597l50 265h81l436 -1q377 0 377 -391v-1079q0 -390 -377 -390q-6 0 -18 -1h-418v1597h-131z" />
<glyph unicode="e" horiz-adv-x="1045" d="M0 798l50 266h81v798h832l-50 -265h-500v-533h337l-50 -266h-287v-533h400l50 -265h-732v798h-131z" />
<glyph unicode="f" horiz-adv-x="1025" d="M0 798l50 266h81v798h832l-50 -265h-500v-533h337l-50 -266h-287v-748l-282 -50v798h-131z" />
<glyph unicode="g" horiz-adv-x="1033" d="M110 361v1140q0 392 405 392q406 0 406 -392v-251l-282 48v203q0 126 -123 127h-2q-122 0 -122 -127v-1140q0 -127 123 -127q124 0 124 127v437h-131l50 266h363v-703q0 -392 -406 -393q-405 0 -405 393z" />
<glyph unicode="h" horiz-adv-x="1074" d="M0 798l50 266h81v898l282 -50v-848h247v748l282 50v-1962l-282 50v848h-247v-748l-282 -50v798h-131z" />
<glyph unicode="i" horiz-adv-x="553" d="M135 0v1812l281 50v-1862h-281z" />
<glyph unicode="j" horiz-adv-x="973" d="M30 360v110l282 -50v-60q0 -126 124 -126q123 0 123 126v1236h-131l50 266h363v-1502q0 -392 -405 -392q-406 1 -406 392z" />
<glyph unicode="k" horiz-adv-x="1057" d="M130 0v1962l282 -50v-879l301 779l302 50l-373 -931l412 -1027l-303 50l-339 874v-778z" />
<glyph unicode="l" horiz-adv-x="904" d="M130 0v1862l282 -50v-1547h400l50 -265h-732z" />
<glyph unicode="m" horiz-adv-x="1418" d="M130 0v1962l283 -50l332 -1325l328 1225l283 50v-1962l-271 50v1095l-241 -995h-192l-248 995v-995z" />
<glyph unicode="n" horiz-adv-x="1073" d="M130 0v1962l283 -50l268 -1130v1030l262 50v-1962l-283 50l-258 1096v-996z" />
<glyph unicode="o" horiz-adv-x="1033" d="M110 361v1140q0 392 405 392q406 0 406 -392v-1140q0 -392 -406 -393q-405 0 -405 393z" />
<glyph unicode="p" horiz-adv-x="1000" d="M0 798l50 266h81v798l411 -1q376 0 376 -391v-280q0 -288 -270 -372q-65 -20 -189 -20h-46v-748l-282 -50v798h-131z" />
<glyph unicode="q" horiz-adv-x="1105" d="M111 361v1140q0 392 406 392q405 0 405 -392v-1140q0 -116 -36 -198l190 -189l-234 -164l-175 175q-66 -17 -150 -17q-406 1 -406 393z" />
<glyph unicode="r" horiz-adv-x="1082" d="M0 814l50 250h81v798l411 -1q376 0 376 -391v-280q0 -246 -222 -324l354 -966l-313 50l-288 869l-36 -5v-764l-282 -50v814h-131z" />
<glyph unicode="s" horiz-adv-x="1033" d="M110 361v251l282 -50v-201q0 -127 124 -127q123 0 123 127v213q0 135 -265 315q-264 180 -264 437v175q0 392 405 392q406 0 406 -392v-251l-282 50v201q0 126 -123 127h-2q-122 0 -122 -127v-169q0 -124 265 -305q264 -180 264 -431v-235q0 -393 -405 -393 q-406 1 -406 393z" />
<glyph unicode="t" horiz-adv-x="913" d="M50 1597l50 265h761l-50 -265h-214v-1597h-283v1597h-264z" />
<glyph unicode="u" d="M120 360v1602l282 -50v-1552q0 -126 123 -126q124 0 124 126v1452l282 50v-1502q0 -391 -406 -392q-405 0 -405 392z" />
<glyph unicode="v" horiz-adv-x="1065" d="M40 1962l283 -50l186 -1268h60l170 1168l284 50l-291 -1862h-388z" />
<glyph unicode="w" horiz-adv-x="1418" d="M130 0v1962l271 -50v-1095l241 995h192l248 -995v995l274 50v-1962l-283 50l-332 1325l-328 -1225z" />
<glyph unicode="x" horiz-adv-x="1084" d="M40 1962l280 -47l220 -577l184 477l284 47l-325 -931l359 -1031l-280 47l-222 577l-183 -477l-284 -47l325 931z" />
<glyph unicode="y" horiz-adv-x="1100" d="M40 1962l304 -50l222 -776l193 676l299 50l-342 -1056l-8 -23v-783h-283v783l-9 23z" />
<glyph unicode="z" horiz-adv-x="880" d="M80 0v161l178 670h-79l50 201h83l151 565h-370l50 265h638v-161l-179 -669h81l-50 -201h-84l-151 -566h400l-50 -265h-668z" />
<glyph unicode="{" horiz-adv-x="545" d="M10 820v223q111 3 111 128v544q0 390 392 395l-50 -223q-61 -2 -61 -128v-543q0 -191 -78 -284q78 -94 78 -285v-543q0 -125 61 -127l50 -224q-392 5 -392 396v543q0 126 -111 128z" />
<glyph unicode="|" horiz-adv-x="512" d="M140 -327v2517h234v-2517h-234z" />
<glyph unicode="}" horiz-adv-x="545" d="M30 -247l50 224q61 2 61 127v543q0 191 78 285q-78 93 -78 284v543q0 126 -61 128l-50 223q392 -5 392 -395v-544q0 -125 111 -128v-223q-111 -2 -111 -128v-543q0 -391 -392 -396z" />
<glyph unicode="~" horiz-adv-x="1100" d="M100 942l54 83q99 156 231 156h10q88 -4 224 -108q68 -51 112 -51q31 0 49 24l62 80l156 -126l-62 -78q-90 -116 -203 -116h-12q-88 4 -222 107q-79 60 -96 63q-4 1 -9 1q-34 0 -72 -60l-54 -86z" />
<glyph unicode="&#xa1;" horiz-adv-x="565" d="M120 -183l21 1309h281l21 -1359zM120 1321v308h323v-308h-323z" />
<glyph unicode="&#xa2;" horiz-adv-x="1073" d="M120 316v1011q0 347 405 347q130 0 218 -36l68 214l140 -9l-92 -286q72 -84 72 -230v-223l-206 32l-12 -40l-277 -867q30 -25 89 -25q124 0 124 112v178l282 45v-223q0 -347 -406 -348q-95 0 -167 19l-2 -8l-97 -306l-139 9l113 355l2 7q-115 86 -115 272z" />
<glyph unicode="&#xa3;" horiz-adv-x="1126" d="M60 0l50 265h19q124 0 124 127v480h-193l50 150h143v480q0 392 405 392q406 0 406 -392v-250l-282 50v200q0 126 -123 126h-2q-122 0 -122 -126v-480h330l-50 -150h-280v-348q0 -168 -62 -259h512l-50 -265h-875z" />
<glyph unicode="&#xa4;" horiz-adv-x="1398" d="M130 574l169 169q-6 48 -6 106v267q0 48 4 89l-167 168l171 120l100 -50q96 87 298 87t299 -87l100 50l170 -120l-167 -168q5 -41 5 -89v-267q0 -57 -7 -106l169 -169l-170 -121l-110 61q-97 -78 -289 -78t-288 77l-110 -60z" />
<glyph unicode="&#xa5;" horiz-adv-x="1100" d="M40 1962l304 -50l222 -775l193 675l299 50l-303 -936h214l-50 -150h-211v-151h261l-50 -150h-211v-475h-283v475h-261l50 150h211v151h-261l50 150h163z" />
<glyph unicode="&#xa6;" horiz-adv-x="512" d="M140 0v734l232 50v-784h-232zM140 986v693l232 50v-743h-232z" />
<glyph unicode="&#xa7;" d="M120 855q0 261 188 331q-188 120 -188 367q0 341 402 341q385 0 385 -341v-95l-282 50v45q0 110 -112 110q-111 0 -111 -110q0 -172 265 -315q264 -144 264 -452q0 -273 -240 -325q240 -142 240 -424q0 -364 -403 -364q-385 0 -385 364v101l282 -50v-51q0 -118 113 -118 q110 0 110 118q0 183 -264 336t-264 482z" />
<glyph unicode="&#xa8;" horiz-adv-x="899" d="M130 1806v244h242v-244h-242zM526 1806v244h243v-244h-243z" />
<glyph unicode="&#xa9;" horiz-adv-x="1463" d="M120 566v761q0 578 610 578q611 0 611 -565v-762q0 -577 -611 -577q-610 0 -610 565zM462 574q0 -261 270 -261q271 0 271 261v72l-189 -50v-22q0 -85 -82 -85t-82 85v758q0 85 83 85q81 -1 81 -85v-23l189 -50v73q0 260 -271 260q-270 0 -270 -260v-758z" />
<glyph unicode="&#xaa;" horiz-adv-x="761" d="M38 1182l33 174h53l130 782h252l198 -1278l-184 33l-46 289h-188l-37 -224l-185 -33l36 257h-62zM67 521l50 195h569l-50 -195h-569z" />
<glyph unicode="&#xab;" horiz-adv-x="1305" d="M130 1003l556 508l-50 -331l-174 -190l174 -184l50 -321zM619 1003l556 508l-50 -331l-174 -190l174 -184l50 -321z" />
<glyph unicode="&#xac;" horiz-adv-x="1067" d="M130 1100h807v-522l-232 50v238h-525z" />
<glyph unicode="&#xad;" horiz-adv-x="786" d="M50 841l50 235h636l-50 -235h-636z" />
<glyph unicode="&#xae;" horiz-adv-x="1463" d="M120 566v761q0 578 610 578q611 0 611 -565v-762q0 -577 -611 -577q-610 0 -610 565zM376 913h88v-494l191 30v464l24 3l194 -528l212 -30l-239 586q149 48 149 197v170q0 237 -253 237l-278 1v-484h-54z" />
<glyph unicode="&#xaf;" horiz-adv-x="1208" d="M0 1752l50 213h1158l-50 -213h-1158z" />
<glyph unicode="&#xb0;" horiz-adv-x="877" d="M131 1743q0 308 308 308q309 0 309 -308q0 -309 -309 -309q-308 0 -308 309z" />
<glyph unicode="&#xb1;" horiz-adv-x="1047" d="M120 160l50 212h755l-50 -212h-755zM120 866l50 234h238v237l232 50v-287h287l-50 -234h-237v-237l-232 -50v287h-288z" />
<glyph unicode="&#xb2;" horiz-adv-x="674" d="M100 831v235q0 148 153 253q154 106 155 180v215q0 74 -71 74h-1q-72 0 -72 -74v-120l-164 -27v147q0 230 236 230t236 -230v-220q0 -150 -154 -256t-154 -185v-66h308l-29 -156h-443z" />
<glyph unicode="&#xb3;" horiz-adv-x="679" d="M100 1040v149l164 -30v-119q0 -77 74 -77q75 0 75 77v202q0 60 -27 72q-14 6 -43 6h-27v157h40q23 0 35 7q22 11 22 67v165q0 61 -27 72q-14 6 -45 6q-8 0 -17 -1q-60 -2 -60 -77v-117l-164 -30v149q0 160 97 208q67 34 138 34q66 0 134 -29q108 -45 108 -213v-167 q0 -110 -91 -155q91 -45 91 -154v-202q0 -144 -78 -197q-48 -34 -152 -36h-14q-92 0 -142 29q-91 49 -91 204z" />
<glyph unicode="&#xb4;" horiz-adv-x="756" d="M130 1805l274 255l222 -77l-274 -178h-222z" />
<glyph unicode="&#xb5;" horiz-adv-x="1063" d="M130 -327v2062l283 -50v-1305q0 -132 123 -132q124 0 124 133v1204l283 50v-1825l-283 50v119q-18 -4 -36 -6q-19 -2 -37 -2q-93 0 -174 53v-301z" />
<glyph unicode="&#xb6;" horiz-adv-x="1401" d="M100 1243v336q0 189 71 242q55 42 243 42h855l-50 -191h-181v-1772l-201 50v1722h-222v-1622l-201 -50v969q-193 0 -245 37q-69 49 -69 237z" />
<glyph unicode="&#xb7;" horiz-adv-x="508" d="M120 843v280h276v-280h-276z" />
<glyph unicode="&#xb8;" horiz-adv-x="634" d="M177 -226l118 -25v-4q0 -15 20 -15t20 15v99q0 17 -18 18h-2q-17 0 -24 -17h-113l31 156h121l-31 -87q37 20 69 20q31 0 57 -20q28 -20 28 -70v-99q0 -85 -103 -93q-15 -2 -34 -2q-10 0 -20 1q-119 3 -119 94v29z" />
<glyph unicode="&#xb9;" horiz-adv-x="669" d="M100 830l29 154h123v774h-152l29 154h286v-928h152l-29 -154h-438z" />
<glyph unicode="&#xba;" horiz-adv-x="777" d="M120 1100v604q0 208 267 208q268 0 268 -208v-604q0 -208 -268 -208q-267 0 -267 208zM130 506l50 177h466l-50 -177h-466z" />
<glyph unicode="&#xbb;" horiz-adv-x="1305" d="M130 485l50 321l174 184l-174 190l-50 331l556 -508zM619 485l50 321l174 184l-174 190l-50 331l556 -508z" />
<glyph unicode="&#xbc;" horiz-adv-x="1609" d="M120 830l29 154h123v774h-152l29 154h286v-928h152l-29 -154h-438zM379 0l723 1863h175l-722 -1863h-176zM895 265v137l283 680h207v-663h62l-29 -154h-33v-265l-162 29v236h-328z" />
<glyph unicode="&#xbd;" horiz-adv-x="1685" d="M120 830l29 154h123v774h-152l29 154h286v-928h152l-29 -154h-438zM379 0l723 1863h175l-722 -1863h-176zM1110 0v235q0 148 153 253q154 106 155 180v215q0 74 -71 74h-1q-72 0 -72 -74v-120l-164 -27v147q0 230 236 230t236 -230v-220q0 -150 -154 -256t-154 -185v-66 h308l-29 -156h-443z" />
<glyph unicode="&#xbe;" horiz-adv-x="1549" d="M100 1040v149l164 -30v-119q0 -77 74 -77q75 0 75 77v202q0 60 -27 72q-14 6 -43 6h-27v157h40q23 0 35 7q22 11 22 67v165q0 61 -27 72q-14 6 -45 6q-8 0 -17 -1q-60 -2 -60 -77v-117l-164 -30v149q0 160 97 208q67 34 138 34q66 0 134 -29q108 -45 108 -213v-167 q0 -110 -91 -155q91 -45 91 -154v-202q0 -144 -78 -197q-48 -34 -152 -36h-14q-92 0 -142 29q-91 49 -91 204zM379 0l723 1863h175l-722 -1863h-176zM895 265v137l283 680h207v-663h62l-29 -154h-33v-265l-162 29v236h-328z" />
<glyph unicode="&#xbf;" d="M120 127v187q0 237 199 425q198 188 198 328v42l282 -50v-15q0 -233 -198 -420q-199 -187 -199 -316v-181q0 -126 122 -126h2q123 0 123 126v200l282 50v-250q0 -392 -406 -392q-405 0 -405 392zM491 1320v309h324v-309h-324z" />
<glyph unicode="&#xc0;" horiz-adv-x="1065" d="M0 395l50 266h82l199 1201h388l304 -1962l-283 50l-71 445h-289l-56 -345l-284 -50l55 395h-95zM214 2115l222 76l274 -253h-222z" />
<glyph unicode="&#xc1;" horiz-adv-x="1065" d="M0 395l50 266h82l199 1201h388l304 -1962l-283 50l-71 445h-289l-56 -345l-284 -50l55 395h-95zM381 1938l274 253l222 -76l-274 -177h-222z" />
<glyph unicode="&#xc2;" horiz-adv-x="1065" d="M0 395l50 266h82l199 1201h388l304 -1962l-283 50l-71 445h-289l-56 -345l-284 -50l55 395h-95zM156 1939l256 254h264l258 -254l-254 25l-136 69l-135 -69z" />
<glyph unicode="&#xc3;" horiz-adv-x="1065" d="M0 395l50 266h82l199 1201h388l304 -1962l-283 50l-71 445h-289l-56 -345l-284 -50l55 395h-95zM201 1964l35 71q67 136 174 142h7q67 0 173 -66q51 -33 84 -33q28 0 43 23l41 68l130 -112l-41 -43q-64 -103 -158 -108h-7q-67 0 -171 67q-66 41 -79 43h-4q-28 0 -55 -55 l-35 -46z" />
<glyph unicode="&#xc4;" horiz-adv-x="1065" d="M0 395l50 266h82l199 1201h388l304 -1962l-283 50l-71 445h-289l-56 -345l-284 -50l55 395h-95zM225 1939v242h242v-242h-242zM621 1939v242h243v-242h-243z" />
<glyph unicode="&#xc5;" horiz-adv-x="1071" d="M0 395l50 266h82l199 1201h30q-35 48 -35 132q0 198 198 198q199 0 199 -198q0 -84 -35 -132h31l14 -85h-1l291 -1877l-283 50l-71 445h-289l-56 -345l-284 -50l55 395h-95z" />
<glyph unicode="&#xc6;" horiz-adv-x="1438" d="M0 395l50 266h82l199 1201h1025l-50 -265h-500v-533h337l-50 -266h-287v-533h400l50 -265h-732v395h-144l-56 -345l-284 -50l55 395h-95z" />
<glyph unicode="&#xc7;" horiz-adv-x="1043" d="M110 361v1140q0 392 405 392q406 0 406 -392v-251l-282 50v201q0 126 -123 127h-2q-122 0 -122 -127v-1140q0 -127 123 -127q124 0 124 127v201l282 50v-251q0 -363 -349 -390l-20 -57q37 20 69 20q31 0 57 -20q28 -20 28 -70v-99q0 -85 -103 -93q-15 -2 -34 -2 q-10 0 -20 1q-119 3 -119 94v29l118 -25v-4q0 -15 20 -15t20 15v99q0 17 -18 18h-2q-17 0 -24 -17h-113l25 125q-346 28 -346 391z" />
<glyph unicode="&#xc8;" horiz-adv-x="1045" d="M0 798l50 266h81v798h832l-50 -265h-500v-533h337l-50 -266h-287v-533h400l50 -265h-732v798h-131zM165 2115l222 76l274 -253h-222z" />
<glyph unicode="&#xc9;" horiz-adv-x="1045" d="M0 798l50 266h81v798h832l-50 -265h-500v-533h337l-50 -266h-287v-533h400l50 -265h-732v798h-131zM331 1938l274 253l222 -76l-274 -177h-222z" />
<glyph unicode="&#xca;" horiz-adv-x="1045" d="M0 798l50 266h81v798h832l-50 -265h-500v-533h337l-50 -266h-287v-533h400l50 -265h-732v798h-131zM107 1939l256 252h264l258 -252l-254 25l-136 68l-135 -68z" />
<glyph unicode="&#xcb;" horiz-adv-x="1045" d="M0 798l50 266h81v798h832l-50 -265h-500v-533h337l-50 -266h-287v-533h400l50 -265h-732v798h-131zM180 1939v242h241v-242h-241zM575 1939v242h242v-242h-242z" />
<glyph unicode="&#xcc;" horiz-adv-x="608" d="M0 2115l222 76l274 -253h-222zM192 0v1812l281 50v-1862h-281z" />
<glyph unicode="&#xcd;" horiz-adv-x="607" d="M111 1938l274 253l222 -76l-274 -177h-222zM138 0v1812l281 50v-1862h-281z" />
<glyph unicode="&#xce;" horiz-adv-x="778" d="M0 1939l256 252h264l258 -252l-254 25l-136 68l-135 -68zM251 0v1812l281 50v-1862h-281z" />
<glyph unicode="&#xcf;" horiz-adv-x="639" d="M0 1992v242h242v-242h-242zM180 0v1812l281 50v-1862h-281zM396 1992v242h243v-242h-243z" />
<glyph unicode="&#xd0;" horiz-adv-x="1115" d="M51 1597l50 265h81l435 -1q376 0 376 -391v-1079q0 -390 -376 -390q-6 0 -18 -1h-417v831h-124l50 201h74v565h-131z" />
<glyph unicode="&#xd1;" horiz-adv-x="1073" d="M130 0v1962l133 -24l-71 26l35 71q67 136 174 142h7q67 0 173 -66q51 -33 84 -33q28 0 43 23l41 68l130 -112l-41 -43q-64 -103 -158 -108h-7q-67 0 -171 67q-66 41 -79 43h-4q-28 0 -55 -55l-27 -36l76 -13l268 -1130v1030l262 50v-1962l-283 50l-258 1096v-996z" />
<glyph unicode="&#xd2;" horiz-adv-x="1033" d="M110 361v1140q0 392 405 392q406 0 406 -392v-1140q0 -392 -406 -393q-405 0 -405 393zM196 2115l222 76l274 -253h-222z" />
<glyph unicode="&#xd3;" horiz-adv-x="1033" d="M110 361v1140q0 392 405 392q406 0 406 -392v-1140q0 -392 -406 -393q-405 0 -405 393zM359 1938l274 253l222 -76l-274 -177h-222z" />
<glyph unicode="&#xd4;" horiz-adv-x="1033" d="M110 361v1140q0 392 405 392q406 0 406 -392v-1140q0 -392 -406 -393q-405 0 -405 393zM136 1939l256 252h264l258 -252l-254 25l-136 68l-135 -68z" />
<glyph unicode="&#xd5;" horiz-adv-x="1033" d="M110 361v1140q0 392 405 392q406 0 406 -392v-1140q0 -392 -406 -393q-405 0 -405 393zM181 1964l35 71q67 136 174 142h7q67 0 173 -66q51 -33 84 -33q28 0 43 23l41 68l130 -112l-41 -43q-64 -103 -158 -108h-7q-67 0 -171 67q-66 41 -79 43h-4q-28 0 -55 -55l-35 -46z " />
<glyph unicode="&#xd6;" horiz-adv-x="1033" d="M110 361v1140q0 392 405 392q406 0 406 -392v-1140q0 -392 -406 -393q-405 0 -405 393zM205 1939v242h242v-242h-242zM601 1939v242h243v-242h-243z" />
<glyph unicode="&#xd7;" horiz-adv-x="1047" d="M156 815l186 168l-186 168l143 200l224 -204l224 204l144 -201l-185 -168l185 -168l-142 -200l-225 204l-225 -204z" />
<glyph unicode="&#xd8;" d="M110 361v1140q0 392 405 392q92 0 164 -21l2 8l31 121h140l-49 -192q118 -98 118 -308v-1140q0 -392 -406 -393q-97 0 -171 23l-49 -197h-140l66 262q-111 98 -111 305z" />
<glyph unicode="&#xd9;" d="M120 360v1602l282 -50v-1552q0 -126 123 -126q124 0 124 126v1452l282 50v-1502q0 -391 -406 -392q-405 0 -405 392zM195 2115l222 76l274 -253h-222z" />
<glyph unicode="&#xda;" d="M120 360v1602l282 -50v-1552q0 -126 123 -126q124 0 124 126v1452l282 50v-1502q0 -391 -406 -392q-405 0 -405 392zM360 1938l274 253l222 -76l-274 -177h-222z" />
<glyph unicode="&#xdb;" d="M120 360v1602l35 -6l239 235h264l258 -252l-254 25l-136 68l-135 -68l-181 -18l192 -34v-1552q0 -126 123 -126q124 0 124 126v1452l282 50v-1502q0 -391 -406 -392q-405 0 -405 392z" />
<glyph unicode="&#xdc;" d="M120 360v1602l86 -15v234h242v-242h-197l151 -27v-1552q0 -126 123 -126q124 0 124 126v1452l282 50v-1502q0 -391 -406 -392q-405 0 -405 392zM602 1939v242h243v-242h-243z" />
<glyph unicode="&#xdd;" horiz-adv-x="1100" d="M40 1962l304 -50l222 -776l193 676l299 50l-342 -1056l-8 -23v-783h-283v783l-9 23zM426 1938l274 253l222 -76l-274 -177h-222z" />
<glyph unicode="&#xde;" horiz-adv-x="1019" d="M0 477l50 267h81v538h-131l50 267h81v265l282 48v-313h92q6 0 18 -1h19q375 0 375 -394v-282q0 -291 -269 -375q-66 -20 -190 -20h-45v-804h-282v804h-131z" />
<glyph unicode="&#xdf;" horiz-adv-x="1054" d="M0 794l50 266h81v409q0 393 405 393q406 0 406 -393v-282q0 -185 -156 -261q156 -75 156 -260v-585q0 -392 -376 -392l-28 -1l50 266q72 0 72 127v585q0 89 -77 119q-23 9 -82 9h-88v-754l-282 -50v804h-131z" />
<glyph unicode="&#xe0;" horiz-adv-x="1065" d="M0 395l50 266h82l199 1201h388l304 -1962l-283 50l-71 445h-289l-56 -345l-284 -50l55 395h-95zM214 2115l222 76l274 -253h-222z" />
<glyph unicode="&#xe1;" horiz-adv-x="1065" d="M0 395l50 266h82l199 1201h388l304 -1962l-283 50l-71 445h-289l-56 -345l-284 -50l55 395h-95zM381 1938l274 253l222 -76l-274 -177h-222z" />
<glyph unicode="&#xe2;" horiz-adv-x="1065" d="M0 395l50 266h82l199 1201h388l304 -1962l-283 50l-71 445h-289l-56 -345l-284 -50l55 395h-95zM156 1939l256 254h264l258 -254l-254 25l-136 69l-135 -69z" />
<glyph unicode="&#xe3;" horiz-adv-x="1065" d="M0 395l50 266h82l199 1201h388l304 -1962l-283 50l-71 445h-289l-56 -345l-284 -50l55 395h-95zM201 1964l35 71q67 136 174 142h7q67 0 173 -66q51 -33 84 -33q28 0 43 23l41 68l130 -112l-41 -43q-64 -103 -158 -108h-7q-67 0 -171 67q-66 41 -79 43h-4q-28 0 -55 -55 l-35 -46z" />
<glyph unicode="&#xe4;" horiz-adv-x="1065" d="M0 395l50 266h82l199 1201h388l304 -1962l-283 50l-71 445h-289l-56 -345l-284 -50l55 395h-95zM225 1939v242h242v-242h-242zM621 1939v242h243v-242h-243z" />
<glyph unicode="&#xe5;" horiz-adv-x="1071" d="M0 395l50 266h82l199 1201h30q-35 48 -35 132q0 198 198 198q199 0 199 -198q0 -84 -35 -132h31l14 -85h-1l291 -1877l-283 50l-71 445h-289l-56 -345l-284 -50l55 395h-95z" />
<glyph unicode="&#xe6;" horiz-adv-x="1438" d="M0 395l50 266h82l199 1201h1025l-50 -265h-500v-533h337l-50 -266h-287v-533h400l50 -265h-732v395h-144l-56 -345l-284 -50l55 395h-95z" />
<glyph unicode="&#xe7;" horiz-adv-x="1043" d="M110 361v1140q0 392 405 392q406 0 406 -392v-251l-282 50v201q0 126 -123 127h-2q-122 0 -122 -127v-1140q0 -127 123 -127q124 0 124 127v201l282 50v-251q0 -363 -349 -390l-20 -57q37 20 69 20q31 0 57 -20q28 -20 28 -70v-99q0 -85 -103 -93q-15 -2 -34 -2 q-10 0 -20 1q-119 3 -119 94v29l118 -25v-4q0 -15 20 -15t20 15v99q0 17 -18 18h-2q-17 0 -24 -17h-113l25 125q-346 28 -346 391z" />
<glyph unicode="&#xe8;" horiz-adv-x="1045" d="M0 798l50 266h81v798h832l-50 -265h-500v-533h337l-50 -266h-287v-533h400l50 -265h-732v798h-131zM165 2115l222 76l274 -253h-222z" />
<glyph unicode="&#xe9;" horiz-adv-x="1045" d="M0 798l50 266h81v798h832l-50 -265h-500v-533h337l-50 -266h-287v-533h400l50 -265h-732v798h-131zM331 1938l274 253l222 -76l-274 -177h-222z" />
<glyph unicode="&#xea;" horiz-adv-x="1045" d="M0 798l50 266h81v798h832l-50 -265h-500v-533h337l-50 -266h-287v-533h400l50 -265h-732v798h-131zM107 1939l256 252h264l258 -252l-254 25l-136 68l-135 -68z" />
<glyph unicode="&#xeb;" horiz-adv-x="1045" d="M0 798l50 266h81v798h832l-50 -265h-500v-533h337l-50 -266h-287v-533h400l50 -265h-732v798h-131zM180 1939v242h241v-242h-241zM575 1939v242h242v-242h-242z" />
<glyph unicode="&#xec;" horiz-adv-x="608" d="M0 2115l222 76l274 -253h-222zM192 0v1812l281 50v-1862h-281z" />
<glyph unicode="&#xed;" horiz-adv-x="607" d="M111 1938l274 253l222 -76l-274 -177h-222zM138 0v1812l281 50v-1862h-281z" />
<glyph unicode="&#xee;" horiz-adv-x="778" d="M0 1939l256 252h264l258 -252l-254 25l-136 68l-135 -68zM251 0v1812l281 50v-1862h-281z" />
<glyph unicode="&#xef;" horiz-adv-x="639" d="M0 1992v242h242v-242h-242zM180 0v1812l281 50v-1862h-281zM396 1992v242h243v-242h-243z" />
<glyph unicode="&#xf0;" horiz-adv-x="1115" d="M51 1597l50 265h81l435 -1q376 0 376 -391v-1079q0 -390 -376 -390q-6 0 -18 -1h-417v831h-124l50 201h74v565h-131z" />
<glyph unicode="&#xf1;" horiz-adv-x="1073" d="M130 0v1962l133 -24l-71 26l35 71q67 136 174 142h7q67 0 173 -66q51 -33 84 -33q28 0 43 23l41 68l130 -112l-41 -43q-64 -103 -158 -108h-7q-67 0 -171 67q-66 41 -79 43h-4q-28 0 -55 -55l-27 -36l76 -13l268 -1130v1030l262 50v-1962l-283 50l-258 1096v-996z" />
<glyph unicode="&#xf2;" horiz-adv-x="1033" d="M110 361v1140q0 392 405 392q406 0 406 -392v-1140q0 -392 -406 -393q-405 0 -405 393zM196 2115l222 76l274 -253h-222z" />
<glyph unicode="&#xf3;" horiz-adv-x="1033" d="M110 361v1140q0 392 405 392q406 0 406 -392v-1140q0 -392 -406 -393q-405 0 -405 393zM359 1938l274 253l222 -76l-274 -177h-222z" />
<glyph unicode="&#xf4;" horiz-adv-x="1033" d="M110 361v1140q0 392 405 392q406 0 406 -392v-1140q0 -392 -406 -393q-405 0 -405 393zM136 1939l256 252h264l258 -252l-254 25l-136 68l-135 -68z" />
<glyph unicode="&#xf5;" horiz-adv-x="1033" d="M110 361v1140q0 392 405 392q406 0 406 -392v-1140q0 -392 -406 -393q-405 0 -405 393zM181 1964l35 71q67 136 174 142h7q67 0 173 -66q51 -33 84 -33q28 0 43 23l41 68l130 -112l-41 -43q-64 -103 -158 -108h-7q-67 0 -171 67q-66 41 -79 43h-4q-28 0 -55 -55l-35 -46z " />
<glyph unicode="&#xf6;" horiz-adv-x="1033" d="M110 361v1140q0 392 405 392q406 0 406 -392v-1140q0 -392 -406 -393q-405 0 -405 393zM205 1939v242h242v-242h-242zM601 1939v242h243v-242h-243z" />
<glyph unicode="&#xf7;" horiz-adv-x="1045" d="M120 866l50 234h755l-50 -234h-755zM360 317v327h324v-327h-324zM360 1324v326h324v-326h-324z" />
<glyph unicode="&#xf8;" d="M110 361v1140q0 392 405 392q92 0 164 -21l2 8l31 121h140l-49 -192q118 -98 118 -308v-1140q0 -392 -406 -393q-97 0 -171 23l-49 -197h-140l66 262q-111 98 -111 305z" />
<glyph unicode="&#xf9;" d="M120 360v1602l282 -50v-1552q0 -126 123 -126q124 0 124 126v1452l282 50v-1502q0 -391 -406 -392q-405 0 -405 392zM195 2115l222 76l274 -253h-222z" />
<glyph unicode="&#xfa;" d="M120 360v1602l282 -50v-1552q0 -126 123 -126q124 0 124 126v1452l282 50v-1502q0 -391 -406 -392q-405 0 -405 392zM360 1938l274 253l222 -76l-274 -177h-222z" />
<glyph unicode="&#xfb;" d="M120 360v1602l35 -6l239 235h264l258 -252l-254 25l-136 68l-135 -68l-181 -18l192 -34v-1552q0 -126 123 -126q124 0 124 126v1452l282 50v-1502q0 -391 -406 -392q-405 0 -405 392z" />
<glyph unicode="&#xfc;" d="M120 360v1602l86 -15v234h242v-242h-197l151 -27v-1552q0 -126 123 -126q124 0 124 126v1452l282 50v-1502q0 -391 -406 -392q-405 0 -405 392zM602 1939v242h243v-242h-243z" />
<glyph unicode="&#xfd;" horiz-adv-x="1100" d="M40 1962l304 -50l222 -776l193 676l299 50l-342 -1056l-8 -23v-783h-283v783l-9 23zM426 1938l274 253l222 -76l-274 -177h-222z" />
<glyph unicode="&#xfe;" horiz-adv-x="1019" d="M0 477l50 267h81v538h-131l50 267h81v265l282 48v-313h92q6 0 18 -1h19q375 0 375 -394v-282q0 -291 -269 -375q-66 -20 -190 -20h-45v-804h-282v804h-131z" />
<glyph unicode="&#xff;" horiz-adv-x="1100" d="M40 1962l304 -50l222 -776l193 676l299 50l-342 -1056l-8 -23v-783h-283v783l-9 23zM247 1996v242h242v-242h-242zM643 1996v242h243v-242h-243z" />
<glyph unicode="&#x152;" horiz-adv-x="1430" d="M110 361v1140q0 392 405 392q114 0 196 -31h637l-50 -265h-500v-533h337l-50 -266h-287v-533h300l50 -265h-435q-83 -32 -198 -32q-405 0 -405 393z" />
<glyph unicode="&#x153;" horiz-adv-x="1430" d="M110 361v1140q0 392 405 392q114 0 196 -31h637l-50 -265h-500v-533h337l-50 -266h-287v-533h300l50 -265h-435q-83 -32 -198 -32q-405 0 -405 393z" />
<glyph unicode="&#x178;" horiz-adv-x="1100" d="M40 1962l304 -50l222 -776l193 676l299 50l-342 -1056l-8 -23v-783h-283v783l-9 23zM247 1996v242h242v-242h-242zM643 1996v242h243v-242h-243z" />
<glyph unicode="&#x2c6;" horiz-adv-x="1109" d="M166 2039l256 254h264l258 -254l-254 25l-136 69l-135 -69z" />
<glyph unicode="&#x2dc;" horiz-adv-x="947" d="M130 1847l35 71q67 136 174 142h7q67 0 173 -66q51 -33 84 -33q28 0 43 23l41 68l130 -112l-41 -43q-64 -103 -158 -108h-7q-67 0 -171 67q-66 41 -79 43h-4q-28 0 -55 -55l-35 -46z" />
<glyph unicode="&#x2000;" horiz-adv-x="1146" />
<glyph unicode="&#x2001;" horiz-adv-x="2293" />
<glyph unicode="&#x2002;" horiz-adv-x="1146" />
<glyph unicode="&#x2003;" horiz-adv-x="2293" />
<glyph unicode="&#x2004;" horiz-adv-x="764" />
<glyph unicode="&#x2005;" horiz-adv-x="573" />
<glyph unicode="&#x2006;" horiz-adv-x="382" />
<glyph unicode="&#x2007;" horiz-adv-x="382" />
<glyph unicode="&#x2008;" horiz-adv-x="286" />
<glyph unicode="&#x2009;" horiz-adv-x="458" />
<glyph unicode="&#x200a;" horiz-adv-x="127" />
<glyph unicode="&#x2010;" horiz-adv-x="786" d="M50 841l50 235h636l-50 -235h-636z" />
<glyph unicode="&#x2011;" horiz-adv-x="786" d="M50 841l50 235h636l-50 -235h-636z" />
<glyph unicode="&#x2012;" horiz-adv-x="786" d="M50 841l50 235h636l-50 -235h-636z" />
<glyph unicode="&#x2013;" horiz-adv-x="1172" d="M50 841l50 235h1010l-50 -235h-1010z" />
<glyph unicode="&#x2014;" horiz-adv-x="2048" d="M50 841l50 235h1913l-50 -235h-1913z" />
<glyph unicode="&#x2018;" horiz-adv-x="557" d="M130 1311v289l107 365h184l-58 -328h117v-326h-350z" />
<glyph unicode="&#x2019;" horiz-adv-x="610" d="M130 1639v326h350v-289l-107 -365h-184l58 328h-117z" />
<glyph unicode="&#x201a;" horiz-adv-x="557" d="M120 1v326h351v-288l-108 -366h-183l58 328h-118z" />
<glyph unicode="&#x201c;" horiz-adv-x="1047" d="M130 1311v289l107 365h184l-58 -328h117v-326h-350zM620 1311v289l107 365h184l-58 -328h117v-326h-350z" />
<glyph unicode="&#x201d;" horiz-adv-x="1100" d="M130 1639v326h350v-289l-107 -365h-184l58 328h-117zM620 1639v326h350v-289l-107 -365h-184l58 328h-117z" />
<glyph unicode="&#x201e;" horiz-adv-x="1100" d="M130 2v326h350v-289l-107 -365h-184l58 328h-117zM620 2v326h350v-289l-107 -365h-184l58 328h-117z" />
<glyph unicode="&#x2022;" horiz-adv-x="987" d="M129 984q0 151 106 258q108 107 258 107q151 0 259 -107q106 -107 106 -258q0 -150 -106 -258q-108 -106 -259 -106q-150 0 -258 106q-106 108 -106 258z" />
<glyph unicode="&#x2026;" horiz-adv-x="2048" d="M120 0v327h325v-327h-325zM803 0v327h325v-327h-325zM1486 0v327h325v-327h-325z" />
<glyph unicode="&#x202f;" horiz-adv-x="458" />
<glyph unicode="&#x2039;" horiz-adv-x="816" d="M130 1002l556 507l-50 -330l-174 -190l174 -184l50 -320z" />
<glyph unicode="&#x203a;" horiz-adv-x="816" d="M130 485l50 320l174 184l-174 190l-50 330l556 -507z" />
<glyph unicode="&#x205f;" horiz-adv-x="573" />
<glyph unicode="&#x20ac;" horiz-adv-x="1094" d="M30 705l50 150h91v152h-141l50 150h91v344q0 393 405 393q406 0 406 -393v-250l-282 50v200q0 127 -123 127h-2q-122 0 -122 -127v-344h381l-50 -150h-331v-152h381l-50 -150h-331v-344q0 -127 123 -127q124 0 124 127v201l282 50v-251q0 -392 -406 -392q-405 0 -405 392 v344h-141z" />
<glyph unicode="&#x2122;" horiz-adv-x="1108" d="M60 1617l25 112h340l-25 -112h-94v-673h-127v673h-119zM479 945v785l127 -25l149 -513l149 513l127 25v-785l-122 25v416l-109 -416h-85l-113 416v-416z" />
<glyph unicode="&#x25fc;" horiz-adv-x="1960" d="M0 0v1960h1960v-1960h-1960z" />
</font>
</defs>
</svg>
