<?xml version="1.0" encoding="UTF-8" standalone="no"?>
<!-- Created with Inkscape (http://www.inkscape.org/) -->

<svg
   xmlns:dc="http://purl.org/dc/elements/1.1/"
   xmlns:cc="http://creativecommons.org/ns#"
   xmlns:rdf="http://www.w3.org/1999/02/22-rdf-syntax-ns#"
   xmlns:svg="http://www.w3.org/2000/svg"
   xmlns="http://www.w3.org/2000/svg"
   xmlns:sodipodi="http://sodipodi.sourceforge.net/DTD/sodipodi-0.dtd"
   xmlns:inkscape="http://www.inkscape.org/namespaces/inkscape"
   width="26.406855mm"
   height="22.353441mm"
   viewBox="0 0 26.406855 22.353441"
   version="1.1"
   id="svg8"
   inkscape:version="0.92.2 (5c3e80d, 2017-08-06)"
   sodipodi:docname="drawing.svg">
  <defs
     id="defs2" />
  <sodipodi:namedview
     id="base"
     pagecolor="#ffffff"
     bordercolor="#666666"
     borderopacity="1.0"
     inkscape:pageopacity="0.0"
     inkscape:pageshadow="2"
     inkscape:zoom="2.8"
     inkscape:cx="85.169514"
     inkscape:cy="31.89893"
     inkscape:document-units="mm"
     inkscape:current-layer="layer1"
     showgrid="false"
     fit-margin-top="0"
     fit-margin-left="0"
     fit-margin-right="0"
     fit-margin-bottom="0"
     inkscape:window-width="1920"
     inkscape:window-height="1001"
     inkscape:window-x="-9"
     inkscape:window-y="-9"
     inkscape:window-maximized="1" />
  <metadata
     id="metadata5">
    <rdf:RDF>
      <cc:Work
         rdf:about="">
        <dc:format>image/svg+xml</dc:format>
        <dc:type
           rdf:resource="http://purl.org/dc/dcmitype/StillImage" />
        <dc:title></dc:title>
      </cc:Work>
    </rdf:RDF>
  </metadata>
  <g
     inkscape:label="Layer 1"
     inkscape:groupmode="layer"
     id="layer1"
     transform="translate(-45.321478,-9.960204)">
    <path
       style="fill:#16a8eb;stroke-width:0.26458335"
       d="m 46.701793,32.003119 c -0.24275,-0.392778 0.373647,-0.755121 1.29307,-0.760117 l 0.745621,-0.0041 -0.564811,-0.793202 c -0.733358,-1.029907 -0.603069,-2.044906 0.353323,-2.752506 l 0.750588,-0.555333 0.644118,0.79375 c 0.972684,1.198644 0.762241,1.844973 0.354487,2.660481 l -0.265765,0.649647 1.809094,0.02079 c 2.134474,0.02453 2.162787,-0.07052 2.162787,-0.156705 0,-0.08619 -0.226313,-0.483055 -0.517354,-0.853055 -0.291042,-0.37 -0.529167,-0.858514 -0.529167,-1.085588 0,-0.472722 1.469762,-1.94518 1.892135,-1.942465 0.427047,0.0027 1.585488,1.836665 1.540172,2.438238 -0.02194,0.291271 -0.432323,0.801634 -0.680976,1.076392 -0.439423,0.485557 -0.388461,0.448728 1.585099,0.452312 2.083534,0.0038 2.010923,-0.04205 2.007687,-0.15119 -0.0032,-0.109141 -0.238713,-0.496094 -0.523283,-0.859896 -0.284571,-0.363802 -0.520048,-0.801151 -0.523284,-0.971887 -0.0078,-0.410206 1.286858,-1.93853 1.642114,-1.93853 0.322328,0 0.833821,0.606028 1.424554,1.68784 0.390198,0.714572 0.381174,0.808884 -0.145578,1.521354 l -0.561565,0.68278 1.523369,0.05135 c 1.027977,0.0048 1.013672,0.378734 0.759714,0.789647 -0.255882,0.414026 -15.920267,0.414026 -16.176149,0 z m 2.973183,-2.239893 c 0.218339,-0.568981 -0.599097,-1.382788 -0.993147,-0.988738 -0.21159,0.211591 -0.209566,0.443116 0.0074,0.848557 0.353945,0.661352 0.763411,0.719579 0.985747,0.140181 z m 5.508387,0.158276 c 0.197779,-0.320013 -0.315137,-1.328385 -0.675692,-1.328385 -0.435715,0 -0.59375,0.772781 -0.244174,1.193995 0.378339,0.45587 0.692788,0.50181 0.919866,0.13439 z m 5.332951,-0.141129 c 0.159678,-0.416114 -0.321006,-1.187256 -0.740064,-1.187256 -0.416629,0 -0.561717,0.783559 -0.221086,1.193995 0.417541,0.503105 0.766443,0.500659 0.96115,-0.0067 z M 48.231352,26.177828 C 47.2786,25.903058 46.325829,24.626049 46.324189,23.621639 46.323645,23.28842 46.076767,22.532736 45.77557,21.942341 44.812538,20.054642 44.466539,20.12645 54.525284,20.12645 c 7.766984,0 8.986241,-0.06327 9.11749,0.278757 -0.08747,0.515117 0.531922,0.921011 3.787147,0.892969 3.260913,-0.02809 3.556541,-0.22751 3.955628,0.324568 0.2805,0.38803 0.457203,0.4978 0.256964,1.067782 l -0.252799,0.554228 -4.194157,0.14499 -4.335897,0.192238 -0.446123,1.0568 c -0.7131,1.68923 -1.370219,1.841769 -7.813609,1.813807 -3.024231,-0.01312 -5.890091,-0.136766 -6.368576,-0.274761 z m 12.826141,-1.155127 c 0.352424,-0.246847 0.674923,-0.84974 0.911121,-1.521354 0.217787,-0.619266 0.576293,-1.641071 0.576293,-1.641071 0.122629,-0.361356 0.182461,-0.720595 0.182461,-0.798475 0,-0.07788 -3.689012,-0.141601 -8.197803,-0.141601 h -8.197803 l 0.441598,0.926042 0.441599,0.926042 h 2.199954 c 1.779126,0 2.199954,0.07592 2.199954,0.396875 0,0.319704 -0.411574,0.396875 -2.116666,0.396875 -1.234723,0 -2.116667,0.110243 -2.116667,0.264583 0,0.160267 1.141323,0.264583 2.894802,0.264583 1.764851,0 2.962877,0.110148 3.069202,0.282187 0.310484,0.502372 -0.07969,0.580066 -2.670512,0.531772 -1.725315,-0.03216 -2.492323,0.04233 -2.375882,0.230733 0.112092,0.181368 2.264515,0.278225 6.182884,0.278225 4.904972,0 6.1148,-0.07275 6.575465,-0.395416 z m 9.871959,-2.654366 c 0,-0.347176 -0.592671,-0.511776 -3.928128,-0.448847 -2.815852,-0.08861 -3.722057,-0.261242 -3.990798,0.403948 -0.226431,0.632801 0.853254,0.448848 3.928127,0.448848 3.402045,0 3.990799,-0.05959 3.990799,-0.403949 z M 50.061414,17.86068 c -0.782748,-0.995103 -0.707191,-2.214327 0.250442,-4.041221 0.798275,-1.522886 0.805662,-1.571355 0.390803,-2.564254 -0.534246,-1.2786296 -0.158074,-1.7502321 0.613578,-0.769235 0.783969,0.996653 0.706935,2.214815 -0.256258,4.052317 -0.816451,1.557559 -0.817776,1.566897 -0.359401,2.532852 0.606346,1.277778 0.169425,1.817495 -0.639164,0.789541 z m 5.55625,0 c -0.658263,-0.836846 -0.736168,-2.316131 -0.17329,-3.29048 1.281362,-2.218051 1.278197,-2.205294 0.819407,-3.303333 -0.538335,-1.2884188 -0.166119,-1.7659283 0.608707,-0.780897 0.764285,0.971632 0.735327,2.433846 -0.07176,3.623149 -0.940841,1.386407 -1.036887,1.923133 -0.53384,2.983225 0.597955,1.260098 0.152381,1.787417 -0.649228,0.768336 z"
       id="path21"
       inkscape:connector-curvature="0"
       sodipodi:nodetypes="ccccscsscsscsccsscccsssccsscccccsscscsccccssscssccccscccsssscccssssscscscsccssssscssscssscscc" />
  </g>
</svg>
