<?xml version="1.0" encoding="UTF-8" standalone="no"?>
<!-- Created with Inkscape (http://www.inkscape.org/) -->

<svg
   xmlns:dc="http://purl.org/dc/elements/1.1/"
   xmlns:cc="http://creativecommons.org/ns#"
   xmlns:rdf="http://www.w3.org/1999/02/22-rdf-syntax-ns#"
   xmlns:svg="http://www.w3.org/2000/svg"
   xmlns="http://www.w3.org/2000/svg"
   xmlns:sodipodi="http://sodipodi.sourceforge.net/DTD/sodipodi-0.dtd"
   xmlns:inkscape="http://www.inkscape.org/namespaces/inkscape"
   width="22.769741mm"
   height="22.78302mm"
   viewBox="0 0 22.769741 22.78302"
   version="1.1"
   id="svg8"
   inkscape:version="0.92.2 (5c3e80d, 2017-08-06)"
   sodipodi:docname="fish.svg">
  <defs
     id="defs2" />
  <sodipodi:namedview
     id="base"
     pagecolor="#ffffff"
     bordercolor="#666666"
     borderopacity="1.0"
     inkscape:pageopacity="0.0"
     inkscape:pageshadow="2"
     inkscape:zoom="2.8"
     inkscape:cx="77.923468"
     inkscape:cy="33.222263"
     inkscape:document-units="mm"
     inkscape:current-layer="layer1"
     showgrid="false"
     fit-margin-top="0"
     fit-margin-left="0"
     fit-margin-right="0"
     fit-margin-bottom="0"
     inkscape:window-width="1920"
     inkscape:window-height="1001"
     inkscape:window-x="-9"
     inkscape:window-y="-9"
     inkscape:window-maximized="1" />
  <metadata
     id="metadata5">
    <rdf:RDF>
      <cc:Work
         rdf:about="">
        <dc:format>image/svg+xml</dc:format>
        <dc:type
           rdf:resource="http://purl.org/dc/dcmitype/StillImage" />
        <dc:title></dc:title>
      </cc:Work>
    </rdf:RDF>
  </metadata>
  <g
     inkscape:label="Layer 1"
     inkscape:groupmode="layer"
     id="layer1"
     transform="translate(-47.238661,-9.8807571)">
    <path
       style="fill:#fefefe;stroke-width:0.26458335"
       d="m 47.3195,27.026964 c 0.07794,-5.434229 0.10558,-5.689569 0.769055,-7.104113 0.378516,-0.807005 1.051772,-1.881354 1.496124,-2.387444 0.61071,-0.69556 0.77448,-1.095058 0.670942,-1.636684 -0.07534,-0.394087 -0.06096,-1.01938 0.03195,-1.389539 0.209158,-0.833354 1.84937,-2.680946 2.83039,-3.188251 l 0.730296,-0.377651 0.744796,1.572912 c 0.472386,0.997617 0.873675,1.529095 1.097165,1.453113 0.193803,-0.06589 1.71185,-0.1198 3.373438,-0.1198 h 3.021069 v -1.472602 c 0,-1.955913 0.312871,-2.4961479 1.445618,-2.4961479 0.852989,0 1.729382,0.5459049 1.729382,1.0772319 0,0.135127 0.155837,0.245685 0.346305,0.245685 0.651043,0 1.28614,0.686727 1.470998,1.590583 0.136066,0.665287 0.356128,0.943731 0.835248,1.056836 0.35778,0.08446 0.781094,0.415492 0.940698,0.735626 0.159604,0.320134 0.487978,0.800616 0.72972,1.067738 0.515876,0.570037 0.570584,1.397748 0.122031,1.846301 -0.17665,0.17665 -1.027618,0.31804 -1.918229,0.318717 l -1.60073,0.0012 -5e-5,3.029397 c -4.8e-5,2.884695 0.02728,3.036257 0.572146,3.173009 0.741609,0.186133 2.779087,2.499483 2.675779,3.038078 -0.123198,0.642285 -2.558021,1.824921 -4.173916,2.027342 -1.114418,0.139602 -1.701172,0.392422 -2.505495,1.079565 -0.577657,0.493499 -1.70875,1.22066 -2.513541,1.615911 -1.436376,0.705438 -1.569242,0.72012 -7.232642,0.79922 l -5.769386,0.08058 z m 12.417457,3.549019 c 3.917666,-1.893347 5.258179,-4.719731 5.258179,-11.086527 v -2.994115 h 1.694899 c 1.666286,0 1.690139,-0.01009 1.412967,-0.597407 -0.155062,-0.328574 -0.649875,-0.775059 -1.099586,-0.992188 -0.595722,-0.287627 -0.884181,-0.664086 -1.062755,-1.386968 -0.135573,-0.548806 -0.408266,-0.992187 -0.610228,-0.992187 -0.200819,0 -0.715602,-0.383722 -1.143962,-0.852716 L 63.407636,10.82116 v 2.14844 2.148441 l -4.299479,0.10333 c -4.029608,0.09685 -4.382517,0.147082 -5.622396,0.800351 -1.709951,0.900941 -3.17066,2.352321 -4.056151,4.030245 -0.683534,1.295235 -0.708976,1.502528 -0.793023,6.461327 l -0.08683,5.123161 4.716962,-0.10657 c 4.668008,-0.105464 4.735158,-0.115364 6.470241,-0.953902 z m -2.685132,-1.711371 c -0.0069,-1.023992 -0.857399,-2.998315 -1.659744,-3.85297 -0.936943,-0.998028 -2.222891,-1.669601 -3.560712,-1.859545 -1.11316,-0.158046 -1.265394,-0.259278 -1.338394,-0.889999 -0.07914,-0.683787 -0.04286,-0.705878 0.926042,-0.563848 1.629645,0.238889 3.657355,1.277957 4.808324,2.463952 1.126915,1.161209 2.153212,3.438802 2.153212,4.778482 0,0.65969 -0.104755,0.783824 -0.661459,0.783824 -0.56868,0 -0.662273,-0.120612 -0.667269,-0.859896 z m 1.492271,-2.003189 C 58.199427,24.263175 55.987567,22.026588 53.314637,21.573499 52.332175,21.406962 52.151011,21.27709 52.082358,20.690105 l -0.08049,-0.688154 1.390123,0.252662 c 0.764568,0.138965 1.812818,0.469405 2.329445,0.734312 2.122617,1.088399 3.922439,3.661453 4.183933,5.981418 0.124353,1.103255 0.09553,1.166665 -0.530281,1.166665 -0.591077,0 -0.679861,-0.136285 -0.830995,-1.275585 z m -9.008187,0.595228 c -0.617132,-0.617132 -0.526052,-1.858228 0.172265,-2.347348 0.806749,-0.56507 1.180763,-0.519213 1.93753,0.237553 0.787816,0.787817 0.818556,1.298111 0.120265,1.996402 -0.634172,0.634173 -1.657259,0.686194 -2.23006,0.113393 z m 1.43631,-1.02382 c 0,-0.279261 -0.507765,-0.396586 -0.658791,-0.152222 -0.0914,0.147895 0.01943,0.268899 0.246301,0.268899 0.226869,0 0.41249,-0.0525 0.41249,-0.116677 z m 9.017716,-1.219461 c -0.357583,-1.667353 -0.822471,-2.569484 -1.784199,-3.462303 -0.992645,-0.92152 -2.260513,-1.543439 -3.61571,-1.77359 -0.869056,-0.14759 -1.122274,-0.312986 -1.188813,-0.776503 -0.07101,-0.494667 0.04016,-0.588966 0.694339,-0.588966 3.0359,0 6.339986,2.817697 7.102484,6.056939 0.453974,1.928572 0.461174,1.880561 -0.282017,1.880561 -0.554067,0 -0.677829,-0.178561 -0.926084,-1.336138 z m 1.553702,-1.640424 c -0.655954,-2.767144 -2.751848,-4.769634 -5.367319,-5.128125 -1.09278,-0.149782 -1.235349,-0.244977 -1.235349,-0.82486 0,-0.63098 0.04708,-0.648778 1.256771,-0.475098 3.436164,0.493344 6.256599,3.337995 6.766855,6.824958 0.132423,0.904948 0.09081,0.992187 -0.473245,0.992187 -0.527846,0 -0.666667,-0.203471 -0.947713,-1.389062 z m 4.990977,3.892354 c 0.754017,-0.223919 1.370939,-0.498819 1.370939,-0.610889 0,-0.333649 -0.616204,-1.007731 -1.322917,-1.447176 -0.659923,-0.41035 -0.66276,-0.407966 -1.2225,1.026943 -0.308573,0.791036 -0.479011,1.438247 -0.378751,1.438247 0.10026,0 0.799213,-0.183206 1.553229,-0.407125 z M 53.735082,13.555411 c -0.217361,-0.42033 -0.500623,-0.764237 -0.629471,-0.764237 -0.435485,0 -1.604225,1.623768 -1.604225,2.228801 v 0.600701 l 1.314449,-0.650514 1.31445,-0.650514 z"
       id="path34"
       inkscape:connector-curvature="0" />
  </g>
</svg>
