<?xml version="1.0" encoding="UTF-8" standalone="no"?>
<!-- Created with Inkscape (http://www.inkscape.org/) -->

<svg
   xmlns:dc="http://purl.org/dc/elements/1.1/"
   xmlns:cc="http://creativecommons.org/ns#"
   xmlns:rdf="http://www.w3.org/1999/02/22-rdf-syntax-ns#"
   xmlns:svg="http://www.w3.org/2000/svg"
   xmlns="http://www.w3.org/2000/svg"
   xmlns:sodipodi="http://sodipodi.sourceforge.net/DTD/sodipodi-0.dtd"
   xmlns:inkscape="http://www.inkscape.org/namespaces/inkscape"
   width="21.617708mm"
   height="22.201162mm"
   viewBox="0 0 21.617708 22.201162"
   version="1.1"
   id="svg8"
   inkscape:version="0.92.2 (5c3e80d, 2017-08-06)"
   sodipodi:docname="krewetka.svg">
  <defs
     id="defs2" />
  <sodipodi:namedview
     id="base"
     pagecolor="#ffffff"
     bordercolor="#666666"
     borderopacity="1.0"
     inkscape:pageopacity="0.0"
     inkscape:pageshadow="2"
     inkscape:zoom="2.8"
     inkscape:cx="75.546773"
     inkscape:cy="31.650848"
     inkscape:document-units="mm"
     inkscape:current-layer="layer1"
     showgrid="false"
     fit-margin-top="0"
     fit-margin-left="0"
     fit-margin-right="0"
     fit-margin-bottom="0"
     inkscape:window-width="1920"
     inkscape:window-height="1001"
     inkscape:window-x="-9"
     inkscape:window-y="-9"
     inkscape:window-maximized="1" />
  <metadata
     id="metadata5">
    <rdf:RDF>
      <cc:Work
         rdf:about="">
        <dc:format>image/svg+xml</dc:format>
        <dc:type
           rdf:resource="http://purl.org/dc/dcmitype/StillImage" />
        <dc:title></dc:title>
      </cc:Work>
    </rdf:RDF>
  </metadata>
  <g
     inkscape:label="Layer 1"
     inkscape:groupmode="layer"
     id="layer1"
     transform="translate(-47.867495,-10.046845)">
    <path
       style="fill:#fefefe;stroke-width:0.26458332"
       d="m 60.965491,32.071614 c -0.383368,-0.383368 -0.142554,-1.925098 0.485069,-3.105496 0.363803,-0.684218 0.661459,-1.268356 0.661459,-1.298084 0,-0.02973 -0.506016,-0.01559 -1.124479,0.03142 -2.92666,0.222468 -2.629832,-2.290368 0.312917,-2.649046 0.746893,-0.09103 1.255376,-1.395771 0.771284,-1.979066 -0.157323,-0.189563 -0.31863,-0.732441 -0.35846,-1.206397 -0.03983,-0.473956 -0.08547,-1.006978 -0.101423,-1.184493 -0.01807,-0.20105 -0.398938,-0.07171 -1.010046,0.342996 -1.07819,0.73168 -2.272428,0.769154 -2.403849,0.07543 -0.05829,-0.3077 0.197596,-0.499646 0.881809,-0.661458 0.530162,-0.125381 0.923287,-0.347027 0.87361,-0.492548 -0.09223,-0.270178 -0.292444,-0.282485 -1.668418,-0.102562 -1.06045,0.138666 -1.30096,-0.72166 -0.273814,-0.979457 l 0.69679,-0.174877 -0.698007,-0.728563 c -0.538245,-0.561807 -1.041918,-0.768317 -2.200565,-0.902251 -2.613292,-0.302084 -6.765471,-2.357266 -6.61932,-3.27633 0.0394,-0.247795 -0.257501,-0.801584 -0.65979,-1.23064 -0.532134,-0.56754 -0.709911,-1.000103 -0.652441,-1.5875 0.104406,-1.0671376 0.775399,-1.053249 1.053977,0.02182 0.118178,0.456067 0.511266,1.02342 0.873528,1.260782 0.636468,0.417031 0.749824,0.385819 3.364889,-0.926482 2.662936,-1.336323 2.736007,-1.355737 4.56725,-1.213395 1.023559,0.07956 3.170704,0.3872 4.771433,0.683642 3.159344,0.585084 3.836458,1.008114 3.836458,2.396843 0,0.542402 0.330134,1.001394 1.321537,1.837357 1.580614,1.332793 1.873784,2.157328 1.12646,3.168138 l -0.530468,0.717496 0.61678,1.179453 c 0.792568,1.51561 0.806518,2.461929 0.04538,3.078478 -0.459979,0.3726 -0.576849,0.704354 -0.514094,1.459339 0.06113,0.735406 -0.05784,1.09538 -0.480914,1.455208 -1.40685,1.196526 -2.577613,2.47516 -3.889994,4.248407 -1.172907,1.584794 -1.54818,1.918229 -2.15892,1.918229 -0.406581,0 -0.818613,-0.07937 -0.915627,-0.176389 z m 3.197425,-3.732756 1.389438,-1.779397 -0.860272,-0.358962 c -0.573163,-0.239162 -1.335529,-0.303246 -2.2843,-0.192017 -1.964013,0.230251 -2.452432,0.576267 -0.793798,0.562359 1.900377,-0.01594 2.191615,0.48777 1.256539,2.173222 -0.382941,0.69024 -0.774519,1.552638 -0.870175,1.91644 l -0.173918,0.661458 0.473523,-0.601853 c 0.260438,-0.331019 1.098771,-1.402582 1.862963,-2.38125 z m 2.976186,-3.896063 v -0.926042 h -1.546493 c -1.205044,0 -1.651124,0.115616 -2.02039,0.52365 -0.532364,0.588257 -0.491162,0.620571 1.317925,1.033633 2.027853,0.463012 2.248958,0.400951 2.248958,-0.631241 z m 1.224659,-2.374534 c 0.116328,-0.303146 -0.493998,-1.650428 -1.126227,-2.486123 -0.04084,-0.05399 -0.934204,0.45203 -1.985249,1.12448 -1.051045,0.672449 -2.008984,1.222635 -2.128754,1.222635 -0.119769,0 -0.217762,0.119062 -0.217762,0.264583 0,0.158806 1.061101,0.264584 2.654137,0.264584 2.094851,0 2.685686,-0.08222 2.803855,-0.390159 z m -2.537426,-3.056249 c 1.304105,-0.876879 2.3711,-1.68804 2.3711,-1.802582 0,-0.202247 -1.004517,-1.185648 -1.893668,-1.85386 -0.381009,-0.286335 -0.519385,-0.167472 -1.05608,0.907157 -0.339692,0.680166 -1.121525,1.667837 -1.737406,2.194825 -0.883996,0.756403 -1.086894,1.083513 -0.963582,1.553472 0.08591,0.327422 0.325479,0.595312 0.532369,0.595312 0.206892,0 1.443162,-0.717446 2.747267,-1.594324 z m -4.77265,-0.92342 c 0,-0.280911 0.233153,-0.383312 0.778186,-0.341782 0.45528,0.03469 1.001777,-0.143052 1.31703,-0.428353 0.792982,-0.717638 1.873534,-3.037472 1.873534,-4.022282 0,-0.944451 -0.110605,-1.007482 -2.248958,-1.281627 -0.727604,-0.09328 -1.504615,-0.221914 -1.726691,-0.28585 -0.325093,-0.09359 -0.384076,0.0903 -0.302692,0.943689 0.1441,1.511033 -0.105987,2.250446 -1.1532,3.409586 -0.798498,0.883842 -0.867593,1.062201 -0.522452,1.348643 0.32614,0.270672 0.397743,0.252818 0.397743,-0.09917 0,-0.260568 0.219766,-0.429272 0.559197,-0.429272 0.470829,0 0.540787,0.125433 0.442699,0.79375 -0.0795,0.541652 -0.005,0.79375 0.234553,0.79375 0.193079,0 0.351051,-0.180485 0.351051,-0.401078 z m -2.276909,-2.840068 c 0.625072,-0.561244 0.828245,-1.329917 0.729309,-2.759226 -0.117596,-1.698872 -2.080525,-1.857609 -5.296608,-0.428322 -2.056093,0.913767 -2.164599,1.00041 -1.521354,1.214826 0.380955,0.126985 0.692646,0.399554 0.692646,0.605708 0,0.396205 -0.249765,0.467643 -1.322917,0.378383 -0.925919,-0.07701 -0.565743,0.196506 1.23224,0.935771 2.114625,0.869457 4.551075,0.89293 5.486684,0.05286 z M 56.03714,13.078408 c -0.670356,-0.807729 0.418605,-2.099879 1.213623,-1.440073 0.494447,0.410355 0.459431,1.466179 -0.05517,1.663652 -0.618539,0.237356 -0.80592,0.201191 -1.158448,-0.223579 z"
       id="path47"
       inkscape:connector-curvature="0" />
  </g>
</svg>
