<svg xmlns="http://www.w3.org/2000/svg" xmlns:xlink="http://www.w3.org/1999/xlink" width="27" height="17" viewBox="0 0 27 17"><defs><path id="s1r9a" d="M414.36 586H409v-1.29s0-.76 1.48-1.45c.72-.33 1.78-1.19 3.34-1.49a6.6 6.6 0 0 1-1.02-2c-.18-.5-.15-.9-.15-1.5 0-.43-.08-1.13.02-1.52.35-1.3 1.23-1.66 2.27-1.66 1.03 0 1.91.36 2.26 1.66.1.38.02 1.08.02 1.52 0 .6.03 1-.15 1.5-.26.7-.52 1.3-.83 1.75-1.72 1.1-1.88 2.31-1.88 2.7zm17.64-1.77V586h-16.37v-1.77s.01-1.04 2.04-1.99c.99-.46 2.44-1.64 4.6-2.05a9.07 9.07 0 0 1-1.4-2.76c-.26-.67-.22-1.24-.22-2.05 0-.6-.1-1.56.04-2.09.48-1.79 1.69-2.29 3.1-2.29 1.43 0 2.64.5 3.12 2.29.14.52.03 1.49.03 2.09 0 .81.04 1.38-.2 2.05a9.05 9.05 0 0 1-1.42 2.75c2.18.4 3.64 1.6 4.63 2.06 2.04.95 2.05 1.99 2.05 1.99z"/></defs><g><g transform="translate(-407 -570)"><use fill="#3f3f3f" xlink:href="#s1r9a"/></g></g></svg>