<svg xmlns="http://www.w3.org/2000/svg" height="38.096" width="290.65"><path d="M106.66 16.993c0-8.92-6.29-11.22-14.25-11.22H82.17c-.17.62-.13 1.34-.13 1.97l1.15.56c.85.4 1.68 1.12 1.68 2.67v8.75l-.13 5.47c-.04.92-.53 1.12-1.26 1.32l-1.48.42c0 .83.1 1.48.23 2.11H92.6c8.3 0 14.06-3.98 14.06-12.05zm-5.93.76c0 4.84-2.46 8.29-7.76 8.29h-2.24l-.2-6.25v-11h1.78c5.56 0 8.42 3.69 8.42 8.96zm7.87 11.29h10.77c.16-.66.2-1.22.2-2.07l-2.18-.63c-.33-.1-.49-.46-.52-1.48l-.04-4.84v-7.8c0-1.32-.66-1.58-1.74-1.58-1.61 0-4.45.23-6.62.69v2.47h2.83v6.22l-.1 5.1c0 .79-.16 1.12-.79 1.29l-1.94.56c0 .92.03 1.64.13 2.07zm5.3-20.84c.73 0 3.23-2.7 3.23-3.19 0-.66-2.63-3.2-3.23-3.2-.66 0-3.16 2.44-3.16 3.2 0 .62 2.47 3.19 3.16 3.19zm29.43 18.83l-1.87-.52c-.36-.1-.43-.47-.46-1.06l-.1-5.43v-3.46c0-3.39-.07-5.89-6.16-5.89-2.83 0-4.67 1.25-5.92 2.21v-1.09c0-.76-.33-1.15-1.29-1.15-1.61 0-4.48.23-6.65.69v2.43h2.57v6.26l-.1 5.27c0 .82-.16 1.08-.79 1.28l-1.58.53c0 .66.03 1.45.1 1.94h9.78c.16-.66.19-.92.19-2.07l-1.51-.63c-.46-.2-.53-.82-.53-1.48l-.06-4.84v-4.97c.99-.36 2.63-.56 4.05-.56 2.37 0 2.4 1.88 2.4 3.85v1.68l-.07 5.3c0 .49-.06.92-.62 1.19l-1.15.52c-.07.86 0 1.32.13 2.01h9.38c.2-.53.26-.79.26-2.01zm20.51-7.21c0-6.06-3.12-9.25-9.35-9.25-5.36 0-9.51 5.01-9.51 9.75 0 6.15 3.46 9.15 9.22 9.15 5.56 0 9.64-4.91 9.64-9.65zm-5.86.33c0 3.26-.65 5.99-3.26 5.99-3.12 0-3.95-3.19-3.95-6.28 0-2.38.2-6.03 3.36-6.03 3.2 0 3.85 3.39 3.85 6.32zm29.14 7.64l-1.06-3.56c-2.14.46-4.01.79-6.25.79-4.74 0-7.97-2.86-7.97-7.8 0-6.32 3.1-8.46 7.21-8.46 2.87 0 4.81 1.32 5.8 3.85.95.1 1.58.04 2.14-.03v-5.66c-2.74-1.19-4.22-1.55-7.81-1.55-7.34 0-13.2 5.4-13.2 12.18 0 8.07 5.01 11.72 13.34 11.72 3.26 0 5.16-.43 7.8-1.48zm20.15-.56l-.2-1.51h-2.24l-.23-5.7v-4.35c0-5.03-4.87-5.16-7.8-5.13-2.11 0-4.32.36-6.75 1.25l.95 3.95c2.24-.53 3.79-.69 4.91-.69 2.7 0 3.22.49 3.22 1.81v2.07c-.92.1-1.94.2-2.96.33-3.62.5-7.24 1.75-7.24 5.93 0 2.86 1.91 4.15 4.9 4.15 2.24 0 4.28-1.68 5.4-2.9.2 2.3 1.16 2.9 3.66 2.9 1.35 0 3.03-.86 4.38-2.11zm-8.14-2.47c-.88.33-2.04.53-3.02.53-1.09 0-1.72-.56-1.72-1.48 0-1.39 1.19-1.91 2.97-2.18.62-.1 1.25-.13 1.77-.19zm29.99-4.94c0-7.54-3.35-9.12-7.96-9.12-1.48 0-3.16.69-4.38 1.95v-.56c0-.93-.53-1.45-1.45-1.45-2.47 0-5.17.43-6.65.79v2.37h2.77v6.42l-.14 11.62c0 .72-.32 1.64-1.48 1.97l-1.25.4c0 .62-.1 1.15.17 2.07h11.98c.3-1.08.2-1.38.2-2.2l-2.31-.53c-.82-.2-1.35-.23-1.35-1.32l-.06-2.96c.46.03 1.02.03 1.74.03 5.11 0 10.17-1.94 10.17-9.48zm-5.82.59c0 3.4-1.32 6.26-4.18 6.26-1.02 0-1.55-.13-2.01-.23l-.13-6.16v-5.73c.66-.19 1.74-.42 2.76-.42 2.34 0 3.56 2.4 3.56 6.28zm7.6 8.63h10.77c.16-.66.2-1.22.2-2.07l-2.18-.63c-.33-.1-.49-.46-.52-1.48l-.04-4.84v-7.8c0-1.32-.66-1.58-1.74-1.58-1.62 0-4.45.23-6.62.69v2.47h2.83v6.22l-.1 5.1c0 .79-.16 1.12-.79 1.29l-1.94.56c0 .92.03 1.64.13 2.07zm5.3-20.84c.73 0 3.23-2.7 3.23-3.19 0-.66-2.63-3.2-3.23-3.2-.66 0-3.16 2.44-3.16 3.2 0 .62 2.47 3.19 3.16 3.19zm21.24 16.23c-1.42.33-2.64.49-3.62.49-1.55 0-2.24-.55-2.28-1.51l-.13-3.52v-5.53h6.03v-3.29h-6.03v-3.69h-1.28l-6.95 4.9v2.08h2.64l-.1 9.15c-.04 4.41 1.48 5.89 4.8 5.89 3.69 0 5.96-1.22 7.57-2.53zm20.51 2.8l-.2-1.51h-2.24l-.23-5.7v-4.35c0-5.03-4.87-5.16-7.8-5.13-2.11 0-4.32.36-6.75 1.25l.95 3.95c2.24-.53 3.79-.69 4.91-.69 2.7 0 3.22.49 3.22 1.81v2.07c-.92.1-1.94.2-2.96.33-3.62.5-7.24 1.75-7.24 5.93 0 2.86 1.91 4.15 4.9 4.15 2.24 0 4.28-1.68 5.4-2.9.2 2.3 1.16 2.9 3.66 2.9 1.35 0 3.03-.86 4.38-2.11zm-8.14-2.47c-.88.33-2.04.53-3.02.53-1.09 0-1.72-.56-1.72-1.48 0-1.39 1.19-1.91 2.97-2.18.62-.1 1.25-.13 1.77-.19zm20.84 2.21l-2.17-.63c-.46-.13-.49-.82-.53-1.48l-.03-4.84V5.473c0-1.32-.66-1.58-1.74-1.58-1.62 0-4.81.26-6.52.69v2.47h2.73v12.97l-.1 5.27c0 .82-.16 1.12-.79 1.28l-1.94.53c0 .92-.07 1.15.13 1.94h10.77c.16-.66.19-.92.19-2.07z" xmlns:name="main_text"/><g xmlns:name="symbol_mainfill"><path d="M32.311 27.768c0 1.463-3.35 2.651-7.482 2.651-4.13 0-7.482-1.187-7.482-2.651v2.772c0 1.464 3.35 2.651 7.482 2.651 4.133 0 7.482-1.186 7.482-2.65v-2.773zm0-6.525c0 1.465-3.35 2.652-7.482 2.652-4.13 0-7.482-1.186-7.482-2.652 0-1.464 3.35-2.651 7.482-2.651s7.482 1.187 7.482 2.651"/><path d="M32.311 23.12c0 1.464-3.35 2.651-7.482 2.651-4.13 0-7.482-1.186-7.482-2.651v2.772c0 1.464 3.35 2.651 7.482 2.651 4.133 0 7.482-1.186 7.482-2.651V23.12zm0 9.552c0 1.464-3.35 2.651-7.482 2.651-4.13 0-7.482-1.186-7.482-2.65v2.772c0 1.464 3.35 2.65 7.482 2.65 4.133 0 7.482-1.186 7.482-2.65v-2.773zm17.348-4.904c0 1.463-3.35 2.651-7.483 2.651-4.13 0-7.482-1.187-7.482-2.651v2.772c0 1.464 3.35 2.651 7.482 2.651 4.134 0 7.483-1.186 7.483-2.65v-2.773z"/><path d="M49.659 23.12c0 1.464-3.35 2.651-7.483 2.651-4.13 0-7.482-1.186-7.482-2.651v2.772c0 1.464 3.35 2.651 7.482 2.651 4.134 0 7.483-1.186 7.483-2.651V23.12z"/><path d="M49.659 18.472c0 1.464-3.35 2.651-7.483 2.651-4.13 0-7.482-1.187-7.482-2.651v2.772c0 1.465 3.35 2.652 7.482 2.652 4.134 0 7.483-1.187 7.483-2.652v-2.772zm0-6.525c0 1.465-3.35 2.652-7.483 2.652-4.13 0-7.482-1.187-7.482-2.652 0-1.464 3.35-2.651 7.482-2.651 4.134 0 7.483 1.186 7.483 2.651"/><path d="M49.659 13.823c0 1.464-3.35 2.652-7.483 2.652-4.13 0-7.482-1.187-7.482-2.652v2.773c0 1.463 3.35 2.65 7.482 2.65 4.134 0 7.483-1.186 7.483-2.65v-2.773zm0 18.849c0 1.464-3.35 2.651-7.483 2.651-4.13 0-7.482-1.186-7.482-2.65v2.772c0 1.464 3.35 2.65 7.482 2.65 4.134 0 7.483-1.186 7.483-2.65v-2.773zM67 27.768c0 1.463-3.348 2.651-7.481 2.651-4.13 0-7.483-1.187-7.483-2.651v2.772c0 1.464 3.35 2.651 7.483 2.651S67 32.005 67 30.541v-2.773z"/><path d="M67 23.12c0 1.464-3.348 2.651-7.481 2.651-4.13 0-7.483-1.186-7.483-2.651v2.772c0 1.464 3.35 2.651 7.483 2.651S67 27.357 67 25.892V23.12z"/><path d="M67 18.472c0 1.464-3.348 2.651-7.481 2.651-4.13 0-7.483-1.187-7.483-2.651v2.772c0 1.465 3.35 2.652 7.483 2.652S67 22.709 67 21.244v-2.772z"/><path d="M67 13.823c0 1.464-3.348 2.652-7.481 2.652-4.13 0-7.483-1.187-7.483-2.652v2.773c0 1.463 3.35 2.65 7.483 2.65S67 18.06 67 16.597v-2.773z"/><path d="M67 9.175c0 1.464-3.348 2.651-7.481 2.651-4.13 0-7.483-1.186-7.483-2.65v2.771c0 1.465 3.35 2.652 7.483 2.652S67 13.412 67 11.947V9.175zm0-6.524c0 1.464-3.348 2.651-7.481 2.651-4.13 0-7.483-1.187-7.483-2.65C52.036 1.185 55.386 0 59.52 0S67 1.186 67 2.651"/><path d="M67 4.527c0 1.464-3.348 2.651-7.481 2.651-4.13 0-7.483-1.186-7.483-2.65v2.771c0 1.465 3.35 2.652 7.483 2.652S67 8.765 67 7.3V4.527zm0 28.145c0 1.464-3.348 2.651-7.481 2.651-4.13 0-7.483-1.186-7.483-2.65v2.772c0 1.464 3.35 2.65 7.483 2.65S67 36.909 67 35.445v-2.773zm-52.036-1.878c0 1.466-3.35 2.653-7.482 2.653S0 32.261 0 30.794c0-1.463 3.35-2.65 7.482-2.65s7.482 1.188 7.482 2.65"/><path d="M14.964 32.672c0 1.464-3.35 2.65-7.482 2.65S0 34.136 0 32.672v2.772c0 1.465 3.35 2.652 7.482 2.652s7.482-1.187 7.482-2.652v-2.772z"/></g></svg>