<svg height="448pt" viewBox="0 0 448 448" width="448pt" xmlns="http://www.w3.org/2000/svg"><path d="M264.266 258.055l-17.13 32.8a8.005 8.005 0 01-9.929 3.786 144.206 144.206 0 01-83.832-83.856 8.005 8.005 0 013.785-9.93l32.8-17.12-10.343-58.606a39.997 39.997 0 00-39.812.332A39.998 39.998 0 00120 160c.105 92.738 75.262 167.895 168 168a40.002 40.002 0 0034.871-59.602zm0 0"/><path d="M224 0C100.29 0 0 100.29 0 224s100.29 224 224 224 224-100.29 224-224C447.86 100.348 347.652.14 224 0zm64 344c-101.574-.113-183.887-82.426-184-184a56.01 56.01 0 0129.727-49.45 56.005 56.005 0 0157.617 3.052 7.978 7.978 0 013.398 5.238l12 67.894a7.995 7.995 0 01-4.176 8.48l-31.52 16.466a128.157 128.157 0 0065.306 65.336l16.449-31.559a7.995 7.995 0 018.48-4.176l67.903 12a7.975 7.975 0 015.23 3.39A55.999 55.999 0 01288 344zm0 0"/></svg>