<svg height="512pt" viewBox="0 0 512 512" width="512pt" xmlns="http://www.w3.org/2000/svg"><path d="M284.438 237.762l-35.204-7.813c-13.39-3.05-28.804-7.082-28.804-19.707 0-12.652 10.812-21.492 30.332-21.492 39.34 0 35.746 27.035 55.277 27.035 10.277 0 19.274-6.043 19.274-16.433 0-24.247-38.805-42.442-71.723-42.442-35.735 0-73.79 15.176-73.79 55.594 0 19.465 6.954 40.172 45.259 49.777l47.562 11.875c14.395 3.547 17.996 11.645 17.996 18.95 0 12.148-12.066 24.015-33.926 24.015-42.699 0-36.773-32.86-59.656-32.86-10.281 0-17.742 7.083-17.742 17.188 0 19.703 23.922 45.996 77.398 45.996 50.88 0 76.09-24.523 76.09-57.367 0-21.207-9.777-43.723-48.344-52.316zm0 0"/><path d="M256 0C114.637 0 0 114.637 0 256s114.637 256 256 256 256-114.637 256-256S397.363 0 256 0zm133.285 388.906C372.453 405.746 350.085 415 326.29 415a89.027 89.027 0 01-43.84-11.55 151.276 151.276 0 01-26.36 2.343c-20.32 0-40.038-3.984-58.589-11.848-17.937-7.562-34.027-18.425-47.86-32.25-13.816-13.82-24.667-29.91-32.242-47.84-7.859-18.562-11.835-38.27-11.835-58.593 0-8.703.78-17.418 2.265-25.946a89.003 89.003 0 01-11.21-43.203c0-23.8 9.273-46.18 26.097-63.008C139.547 106.27 161.925 97 185.727 97c14.578 0 28.984 3.637 41.789 10.445.023-.004.05-.004.07-.011a151.808 151.808 0 0128.504-2.692c20.316 0 40.031 3.98 58.582 11.828 17.918 7.582 34.027 18.434 47.84 32.254 13.832 13.824 24.68 29.922 32.261 47.848 7.86 18.558 11.836 38.27 11.836 58.59 0 9.16-.863 18.328-2.507 27.285a89.097 89.097 0 0111.285 43.355c-.004 23.801-9.266 46.184-26.102 63.004zm0 0"/></svg>