<svg xmlns="http://www.w3.org/2000/svg" width="29.93" height="48.365" viewBox="0 0 28.06 45.342"><path d="M.016 44.749c.001-.723-.033-9.935-.006-20.645L.06 4.5l3.25-.313c2.44-.236 3.25-.796 3.25-2.25C6.56.183 7.313 0 14.56 0c7.241 0 8 .183 8 1.934 0 1.366.807 2.026 2.75 2.25l2.75.316V25l-.095 20.342c-5.016-.182-9.086.021-13.676-.069-14.275-.28-14.293.044-14.267-.519zM26.56 25V6h-25v38h25zm-16 10.583c0-.23.9-2.517 2-5.083 2.444-5.701 2.444-5.5 0-5.5-1.1 0-2-.394-2-.876C10.56 22.206 15.6 12 16.547 12c1.334 0 1.28.574-.361 3.8-2.804 5.513-2.95 7.2-.627 7.2 1.71 0 2.003.416 1.472 2.09-1.5 4.726-4.628 10.91-5.518 10.91-.525 0-.954-.188-.954-.417zM20.56 3c0-.871-.108-.943-6-1-5.983-.058-6 .034-6 1 0 .934.044.957 6 1 5.92.043 6-.066 6-1z" fill="#262323"/></svg>