<svg xmlns="http://www.w3.org/2000/svg" width="40.585" height="25.621" viewBox="0 0 38.048 24.02"><path d="M.553 23.97c-1.092-1.092-.47-8.398 1.02-11.962 6.69-16.01 28.215-16.01 34.905 0 1.489 3.564 2.107 10.866 1.02 11.962-.283.286-1.978-.722-4.75-1.583-3.638-1.13-6.025-2.642-13.691-2.642-7.667 0-10.18 1.324-13.754 2.642-2.136.787-4.46 1.874-4.75 1.583zm5.185-4.22c1.67-.36 5.389-1.117 8.404-1.707 5.61-1.098 6.688-2.606 9.65-5.406 4.356-4.117 4.554-3.995 5.348-3.29.416.37.613.408-.467 1.5-.568.573-1.244 1.285-2.058 2.116-3.62 3.693-4.393 3.934-1.715 4.813 1.535.504 3.8.68 6.156 1.51 4.79 1.69 7.103-1.027 3.862-1.148-2.273-.086-1.749-2.16-.249-2.072 1.927.113.318-5.534-1.986-4.697-1.813.658-2.188-.87-.884-1.416 1.078-.452.838-1.218-.625-2.542-1.044-.945-2.654-1.907-3.228-1.427-1.013.848-2.225-.384-1.375-1.107 2.022-1.72-7.316-4.226-7.546-1.6-.066.758-.03 1.508-.956 1.5-.991-.01-.933-.676-1.044-1.5-.235-1.756-.111-1.79-3.416-.533-1.795.683-2.783 1.726-1.913 2.616 1.093 1.118-.262 2.063-1.378 1.009-1.87-1.766-5.758 2.371-3.674 3.855 1.169.833.13 2.054-1.1 1.377-.963-.53-2.077.535-2.603 1.925-.518 1.37-.37 3.221.218 3.195 1.423-.062 1.085 1.516 1.085 1.516s.09.492-1.219.54c-.55.019-1 .45-1 1 0 1.25.155.74 3.713-.027z" fill="#343132"/></svg>