<svg xmlns="http://www.w3.org/2000/svg" width="77.417" height="51.035" viewBox="0 0 72.579 47.845"><path d="M19.655 46.214c-1.287-1.422-1.655-3.87-1.655-11 0-8.505.145-9.172 2-9.172 1.898 0 2-.666 2-13.02V0l19.75.271L61.5.542l-.327 2.336c-.18 1.285.33 3.085 1.133 4 4.325 4.927 8.782 19.208 10.273 32.914l-.008 6.375-3.853-.125c-5.758-.187-8.643-3.108-11.142-12.015-.966-3.44-2.82-7.32-4.12-8.62-2.139-2.139-3.232-2.365-11.433-2.365h-9.068l-4.477-4.127L24 14.788v5.627c0 4.96.237 5.627 2 5.627 1.864 0 2 .667 2 9.8 0 6.29-.828 9.965-1.598 10.735-1.767 1.767-4.856 1.726-6.747-.363zm6.134-9.433l.289-8.739H20v7.8c0 7.965 1.025 10.532 3.98 9.968 1.195-.228 1.582-2.159 1.809-9.029zm44.587 2.511C68.52 24.266 64.168 11.428 59.412 6.96c-1.822-1.711-2.124-2.558-1.277-3.58.92-1.107-1.914-1.337-16.513-1.337H24v4.392c0 3.798.61 5.07 4.509 9.407l4.508 5.014 9.89.344c12.044.418 12.982 1.077 16.52 11.6 2.97 8.831 4.838 11.243 8.709 11.243 2.787 0 2.818-.065 2.24-4.75zM43 13.042c0-.55 2.25-1 5-1s5 .45 5 1-2.25 1-5 1-5-.45-5-1zm0-3c0-.55 2.25-1 5-1s5 .45 5 1-2.25 1-5 1-5-.45-5-1zm0-3c0-.55 2.25-1 5-1s5 .45 5 1-2.25 1-5 1-5-.45-5-1zm-28.5 4c-.34-.55-1.941-1-3.559-1-1.948 0-2.941-.506-2.941-1.5 0-1.083-1.111-1.5-4-1.5-2.2 0-4-.45-4-1s1.8-1 4-1c2.889 0 4-.416 4-1.5 0-.993.993-1.5 2.941-1.5 1.618 0 3.22-.45 3.559-1 .34-.55 1.941-1 3.559-1 2.928 0 2.941.027 2.941 6 0 5.974-.013 6-2.941 6-1.618 0-3.22-.45-3.559-1zm4.5-5c0-2.816-.427-4-1.441-4-.793 0-1.72.45-2.059 1-.34.55-1.716 1-3.059 1-1.774 0-2.441.547-2.441 2 0 1.454.667 2 2.441 2 1.343 0 2.72.45 3.059 1 .34.55 1.266 1 2.059 1 1.014 0 1.441-1.184 1.441-4z" fill="#2f2b2c"/></svg>