<svg xmlns="http://www.w3.org/2000/svg" width="56.367" height="62.768" viewBox="0 0 52.844 58.845"><path d="M22.115 56.706c-1.186-1.262-2.778-4.075-3.538-6.25L17.194 46.5l-6.162.348c-11.336.64-13.828-3.608-7.573-12.904l3.538-5.256-2.416-2.594c-4.99-5.36-5.917-9.645-2.713-12.545 1.55-1.404 3.306-1.689 8.644-1.405l6.698.356 1.375-3.956C20.302 3.604 23.607 0 26.422 0c2.811 0 6.116 3.6 7.845 8.544l1.382 3.956 6.163-.348c11.335-.64 13.828 3.608 7.572 12.904l-3.537 5.256 2.415 2.594c4.99 5.36 5.918 9.645 2.714 12.545-1.55 1.404-3.306 1.689-8.644 1.405l-6.699-.356-1.374 3.956c-2.79 8.026-7.97 10.692-12.144 6.25zm7.247-1.64c.962-1.063 2.345-3.65 3.071-5.75l1.322-3.816-3.522-1.828c-3.01-1.562-3.978-1.648-6.666-.59-4.51 1.776-4.63 2.014-3.163 6.234C21.871 53.533 24.586 57 26.422 57c.654 0 1.977-.87 2.94-1.934zM12.797 44.375c2.834-.567 3.125-.974 3.125-4.381 0-3.135-.593-4.21-3.582-6.489l-3.583-2.732-2.902 3.363c-6.862 7.953-3.848 12.397 6.942 10.239zm37.085-.827c1.585-1.91.559-4.888-3.137-9.097l-3-3.417-3.412 2.602c-2.829 2.157-3.411 3.251-3.411 6.41 0 4.218.67 4.642 7.627 4.838 2.512.07 4.6-.453 5.333-1.336zm-14.96-3.607c0-2.252-.376-2.345-3.246-.81-2.026 1.085-2.038 1.188-.287 2.469 2.197 1.606 3.533.979 3.533-1.659zm-12.531 1.11c.323-.523-.296-1.423-1.375-2-2.719-1.456-3.094-1.34-3.094.949 0 2.09 3.34 2.876 4.469 1.05zm9.03-4.034c5.296-3.478 5.308-11.737.021-15.004-4.089-2.528-5.951-2.528-10.04 0-3.429 2.118-4.47 5.166-3.505 10.26.571 3.02 5.262 6.714 8.525 6.714 1.1 0 3.35-.887 5-1.97zM24.857 30c0-1.506.455-1.858 1.75-1.81.979.037 1.706.365 1.75 1.81.045 1.515-.77 1.781-1.75 1.81-1.306.037-1.75-.304-1.75-1.81zm15.94-1.652c-1.83-2.205-2.874-1.549-2.874 1.807 0 3.09.041 3.118 1.996 1.348 1.524-1.378 1.732-2.126.878-3.155zm-25.874.497c0-3.09-.041-3.118-1.997-1.348-1.523 1.378-1.73 2.126-.877 3.155 1.83 2.205 2.874 1.549 2.874-1.807zm1-9.847c0-4.167-1.291-4.959-8.128-4.984C1.091 13.988.43 18.093 6.1 24.549l3 3.417 3.412-2.602c2.816-2.148 3.41-3.257 3.41-6.366zm31.786 4.82c1.768-2.3 3.214-5.01 3.214-6.021 0-2.702-4.09-4.16-9.423-3.36-4.483.671-4.577.762-4.586 4.374-.007 2.946.647 4.237 3.25 6.412 1.792 1.498 3.5 2.735 3.795 2.75.295.015 1.982-1.855 3.75-4.155zM21.41 19.632c1.816-1.328 1.81-1.401-.177-2.465-2.33-1.247-3.312-.653-3.312 2 0 2.186.96 2.314 3.489.465zM34.92 19c0-1.313-.666-2-1.94-2-2.697 0-3.46 1.668-1.33 2.908 2.597 1.512 3.27 1.325 3.27-.908zm-4.687-3.486c3.36-1.404 3.507-1.659 2.657-4.623-1.147-4-3.653-7.832-5.61-8.584-2.07-.794-5.196 2.537-6.838 7.284-1.346 3.893-1.339 3.916 1.814 5.617 3.915 2.113 3.674 2.104 7.977.306z" fill="#343031"/></svg>