<svg xmlns="http://www.w3.org/2000/svg" width="67.2" height="67.2" viewBox="0 0 63 63"><path d="M16.812 2.252c8.421-.168 21.921-.167 30 0 8.078.168 1.188.305-15.312.305s-23.11-.138-14.688-.305z" fill="#f1f1f1"/><path d="M0 31.5V0h63v63H0V31.5zm61 0V2H2v59h59V31.5zM10 54c0-.55.675-1 1.5-1s1.5.45 1.5 1-.675 1-1.5 1-1.5-.45-1.5-1zm13 0c0-.55.675-1 1.5-1s1.5.45 1.5 1-.675 1-1.5 1-1.5-.45-1.5-1zm13 0c0-.55.675-1 1.5-1s1.5.45 1.5 1-.675 1-1.5 1-1.5-.45-1.5-1zm13 0c0-.55.675-1 1.5-1s1.5.45 1.5 1-.675 1-1.5 1-1.5-.45-1.5-1zm-31-8.955C18 43.805 13.195 39 11.955 39c-.525 0-.955-.45-.955-1s.43-1 .955-1C13.195 37 18 32.195 18 30.955c0-.525.45-.955 1-.955s1 .427 1 .948C20 32.326 24.53 37 25.865 37c.624 0 1.135.45 1.135 1s-.51 1-1.135 1C24.53 39 20 43.674 20 45.052c0 .521-.45.948-1 .948s-1-.43-1-.955zm4.394-5.295c1.5-2.394-.329-5.158-3.678-5.56-3.325-.4-5.33 2.794-3.684 5.87 1.338 2.5 5.718 2.316 7.362-.31zM43 45.045C43 43.805 38.195 39 36.955 39c-.525 0-.955-.45-.955-1s.43-1 .955-1C38.195 37 43 32.195 43 30.955c0-.525.45-.955 1-.955s1 .427 1 .948C45 32.326 49.53 37 50.865 37c.624 0 1.135.45 1.135 1s-.51 1-1.135 1C49.53 39 45 43.674 45 45.052c0 .521-.45.948-1 .948s-1-.43-1-.955zm4.394-5.295c1.5-2.394-.329-5.158-3.678-5.56-3.325-.4-5.33 2.794-3.684 5.87 1.338 2.5 5.718 2.316 7.362-.31zM18 23.045C18 21.805 13.195 17 11.955 17c-.525 0-.955-.45-.955-1s.43-1 .955-1C13.195 15 18 10.195 18 8.955 18 8.43 18.45 8 19 8s1 .427 1 .948C20 10.326 24.53 15 25.865 15c.624 0 1.135.45 1.135 1s-.51 1-1.135 1C24.53 17 20 21.674 20 23.052c0 .521-.45.948-1 .948s-1-.43-1-.955zm4.394-5.295c1.5-2.394-.329-5.158-3.678-5.56-3.325-.4-5.33 2.794-3.684 5.87 1.338 2.5 5.718 2.316 7.362-.31zM43 23.045C43 21.805 38.195 17 36.955 17c-.525 0-.955-.45-.955-1s.43-1 .955-1C38.195 15 43 10.195 43 8.955 43 8.43 43.45 8 44 8s1 .427 1 .948C45 10.326 49.53 15 50.865 15c.624 0 1.135.45 1.135 1s-.51 1-1.135 1C49.53 17 45 21.674 45 23.052c0 .521-.45.948-1 .948s-1-.43-1-.955zm4.394-5.295c1.5-2.394-.329-5.158-3.678-5.56-3.325-.4-5.33 2.794-3.684 5.87 1.338 2.5 5.718 2.316 7.362-.31z" fill="#221e1f"/><path d="M-66.75-16v-29.5h59v59h-59zm11.812 22.239c.228-1.187-.305-1.739-1.68-1.739-2.293 0-3.563 1.494-2.598 3.055.973 1.575 3.894.676 4.278-1.316zm13 0c.228-1.187-.305-1.739-1.68-1.739-2.293 0-3.563 1.494-2.598 3.055.973 1.575 3.894.676 4.278-1.316zm13 0c.228-1.187-.305-1.739-1.68-1.739-2.293 0-3.563 1.494-2.598 3.055.973 1.575 3.894.676 4.278-1.316zm13 0c.228-1.187-.305-1.739-1.68-1.739-2.293 0-3.563 1.494-2.598 3.055.973 1.575 3.894.676 4.278-1.316zM-45.515-5.5l4-4-4.077-4.077c-4.598-4.599-4.452-4.633-10.963 2.595-1.351 1.5-.875 2.559 2.603 5.78a99.392 99.392 0 0 1 2.5 2.414c1.656 1.67 1.471 1.754 5.937-2.712zm-6.66-2.698c-1.045-2.723-.354-3.801 2.303-4.106 2.05-.235 2.306.819 2.306 2.772 0 1.954-.214 2.28-2.306 2.836-1.816.483-1.926-.518-2.303-1.502zm31.66 2.698l4-4-4.077-4.077c-4.598-4.599-4.452-4.633-10.963 2.595-1.351 1.5-.875 2.559 2.603 5.78a99.392 99.392 0 0 1 2.5 2.414c1.656 1.67 1.471 1.754 5.937-2.712zm-7.576-2.446c-1.045-2.722.404-4.684 3.219-4.358 2.05.238 2.622.85 2.622 2.804 0 1.954-.573 2.566-2.622 2.804-1.661.193-2.841-.265-3.219-1.25zM-45.515-27.5l4-4-4.077-4.077c-4.598-4.599-4.452-4.633-10.963 2.595-1.351 1.5-.875 2.559 2.603 5.78a99.392 99.392 0 0 1 2.5 2.414c1.656 1.67 1.471 1.754 5.937-2.712zm-7.576-2.446c-1.045-2.722.404-4.684 3.219-4.358 2.05.238 2.622.85 2.622 2.804 0 1.954-.573 2.566-2.622 2.804-1.661.193-2.841-.265-3.219-1.25zm32.576 2.446l4-4-4.077-4.077c-4.598-4.599-4.452-4.633-10.963 2.595-1.351 1.5-.875 2.559 2.603 5.78a99.392 99.392 0 0 1 2.5 2.414c1.656 1.67 1.471 1.754 5.937-2.712zm-7.576-2.446c-1.045-2.722.404-4.684 3.219-4.358 2.05.238 2.622.85 2.622 2.804 0 1.954-.573 2.566-2.622 2.804-1.661.193-2.841-.265-3.219-1.25z" fill="#fefefe"/></svg>