<svg xmlns="http://www.w3.org/2000/svg" width="46.016" height="46.016" viewBox="0 0 43.14 43.14"><path d="M1.27 41.87c-1.693-1.693-1.693-38.907 0-40.6 1.693-1.693 38.907-1.693 40.6 0 1.693 1.693 1.693 38.907 0 40.6-1.693 1.693-38.907 1.693-40.6 0zm19.217-2.05c.466-1 .7-1 1.166 0 .406.87 3.445 1.25 10 1.25h9.417v-39h-9.417c-6.555 0-9.594.38-10 1.25-.466 1-.7 1-1.166 0-.403-.863-3.345-1.25-9.5-1.25H2.07v39h8.917c6.155 0 9.097-.387 9.5-1.25zm-5.108-5.697C4.666 29.26 4.71 13.79 15.45 8.693c6.947-3.296 14.432-.857 18.352 5.981 2.783 4.854 2.827 7.608.207 13.02-1.496 3.09-3.226 4.82-6.316 6.316-5.218 2.526-6.966 2.542-12.315.113zm13.427-1.665c5.407-3.424 7.454-10.77 4.562-16.368-2.261-4.377-7.62-8.02-11.798-8.02-7.17 0-14.37 8.551-13.063 15.514 1.74 9.278 12.341 13.912 20.299 8.874zM15.07 21.07c0-.55.675-1 1.5-1s1.5.45 1.5 1-.675 1-1.5 1-1.5-.45-1.5-1zm10 0c0-.55.675-1 1.5-1s1.5.45 1.5 1-.675 1-1.5 1-1.5-.45-1.5-1z" fill="#221e1f"/></svg>