<svg xmlns="http://www.w3.org/2000/svg" width="39.204" height="48" viewBox="0 0 36.753 45"><path d="M12.4 40.608C5.905 34.114 1.706 24.748.322 13.673c-.608-4.86-.457-5.614 1.312-6.561 1.1-.588 2.473-2.43 3.052-4.09L5.74 0h25.154l1.026 2.75c.565 1.512 1.985 3.488 3.156 4.39 2.043 1.575 2.078 1.92.867 8.698-.694 3.883-2.74 10.12-4.546 13.86C28.157 36.413 20.705 45 18.121 45c-.731 0-3.306-1.977-5.722-4.392zm14.13-6.299c3.395-4.775 5.525-10.285 7.383-19.103 1.069-5.07 1.006-5.404-1.476-7.886-1.426-1.426-2.593-3.206-2.593-3.956C29.844 2.29 27.39 2 18.344 2c-9.044 0-11.5.291-11.5 1.364 0 .75-1.15 2.514-2.558 3.921-2.481 2.482-2.525 2.749-1.464 8.887 1.417 8.195 7.073 19.788 11.59 23.754l3.556 3.122 2.665-2.097c1.466-1.153 4.12-4.142 5.897-6.642zM13.848 22.504c-2.902-3.09-1.77-4.715 1.21-1.735l2.157 2.157 4.358-6.495c2.396-3.573 4.792-6.227 5.323-5.899 1.127.697-8.032 14.455-9.627 14.463-.592.003-2.131-1.118-3.42-2.491z" fill="#322e2f"/></svg>