<svg xmlns="http://www.w3.org/2000/svg" width="45.867" height="45.676" viewBox="0 0 43 42.822"><path d="M1.655 40.993C.255 39.446 0 36.61 0 22.607V6.05l11.25-2.07C31.528.253 35.996-.393 37.508.187 39.19.832 39.64 7.822 38 7.822c-.55 0-1-1.35-1-3s-.495-3-1.1-3c-1.153 0-27.754 4.646-31.65 5.528C2.036 7.851 2 8.11 2 23.218c0 11.843.316 15.621 1.38 16.505.954.79 6.92 1.061 19.25.872l17.87-.273.28-13.923c.21-10.468-.039-14.125-1-14.735-.704-.446-9.043-.819-18.53-.827C10.427 10.827 4 10.449 4 9.822c0-.63 6.643-1 17.929-1 14.965 0 18.188.26 19.5 1.571 1.28 1.281 1.571 4.198 1.571 15.8 0 9.733-.38 14.608-1.2 15.429-.848.847-6.677 1.2-19.845 1.2-16.793 0-18.81-.182-20.3-1.83zm32.791-14.258c-1.03-1.668 1.287-3.58 2.667-2.2 1.154 1.153.432 3.287-1.113 3.287-.485 0-1.184-.49-1.554-1.087z" fill="#292526"/></svg>