<svg xmlns="http://www.w3.org/2000/svg" width="61.867" height="77.867" viewBox="0 0 58 73"><path d="M0 36.5V0h58v73H0V36.5zm56 7V16H2v55h54V43.5zM21.384 61.087C10.08 55.954 6.926 40.849 15.19 31.436c4.234-4.823 8.057-6.593 14.359-6.65 9.852-.089 17.734 6.714 19.07 16.46 2.04 14.88-13.397 26.125-27.236 19.84zM36.5 59.119c10.028-4.605 13.183-15.894 7.045-25.213C40.615 29.456 35.636 27 29.55 27c-7.857 0-14.434 5.105-16.484 12.795-2.034 7.632 1.521 15.156 8.955 18.955 5.313 2.715 9.159 2.813 14.48.37zm-12.302-4.743C20.123 52.308 18 48.393 18 42.95c0-9.379 11.604-14.52 18.905-8.376 1.682 1.415 3.561 4.25 4.175 6.298 2.887 9.636-7.746 18.142-16.882 13.504zm9.822-1.886C39.36 49.728 40.61 45 36 45c-1.65 0-3-.45-3-1s1.35-1 3-1c4.05 0 4.014-2.97-.077-6.411-4.304-3.622-9.169-3.497-13 .334-5.026 5.026-3.408 13.425 3.077 15.97 3.51 1.376 4.693 1.317 8.02-.403zM56 8V2H2v12h54V8zm-39.312 2.354c-1.374-1.374-.662-3.496 1.062-3.164.963.186 1.75.969 1.75 1.74 0 1.58-1.764 2.472-2.812 1.424zm11 0c-1.374-1.374-.662-3.496 1.062-3.164.963.186 1.75.969 1.75 1.74 0 1.58-1.764 2.472-2.812 1.424zm11 0c-1.374-1.374-.662-3.496 1.062-3.164.963.186 1.75.969 1.75 1.74 0 1.58-1.764 2.472-2.812 1.424z" fill="#2a2627"/></svg>