<svg xmlns="http://www.w3.org/2000/svg" xmlns:xlink="http://www.w3.org/1999/xlink" width="18" height="22" viewBox="0 0 18 22"><defs><path id="62hla" d="M1002 511.63V528h-16v-16.37h1.9v-1.02c0-1 .63-1.61 1.67-1.61 1.03 0 1.66.6 1.66 1.6v1.03h1.12v-1.02c0-1 .62-1.61 1.66-1.61s1.66.6 1.66 1.6v1.03h1.12v-1.02c0-1 .62-1.61 1.66-1.61s1.66.6 1.66 1.6v1.03zm-14.67 12.17h2.88v-2.52h-2.88zm13.34-5.71h-2.88v2.74h2.88zm-3.33 0h-3.12v2.74h3.12zm-3.57 0h-3.12v2.74h3.12zm-3.56 0h-2.88v2.74h2.88zm.44 5.7h3.12v-2.5h-3.12zm0 .46v2.38h3.12v-2.38zm3.57 2.38h3.12v-2.38h-3.12zm3.12-2.83v-2.52h-3.12v2.52zm.45 0h2.88v-2.52h-2.88zm0-8.53v2.36h2.88v-2.36zm-.1-1.93c0 .5.22.7.76.7.55 0 .78-.2.78-.7v-2.73c0-.5-.23-.7-.78-.7-.54 0-.77.2-.77.7zm-3.47 1.93v2.36h3.12v-2.36zm-.98-1.93c0 .5.22.7.77.7s.77-.2.77-.7v-2.73c0-.5-.22-.7-.77-.7s-.77.2-.77.7zm-2.59 1.93v2.36h3.12v-2.36zm-1.86-1.93c0 .5.23.7.78.7.54 0 .77-.2.77-.7v-2.73c0-.5-.23-.7-.77-.7-.55 0-.78.2-.78.7zm-1.46 1.93v2.36h2.88v-2.36zm0 11.36h2.88v-2.38h-2.88zm13.34 0v-2.38h-2.88v2.38z"/></defs><g><g transform="translate(-985 -507)"><use fill="#3f3f3f" xlink:href="#62hla"/></g></g></svg>