<svg xmlns="http://www.w3.org/2000/svg" width="51.252" height="48.908" viewBox="0 0 48.049 45.851"><path d="M22 44c-2.016-2.016-2.858-6.648-1-5.5.55.34 1 1.25 1 2.024 0 .773.87 1.871 1.934 2.44C28.53 45.425 33 43.04 33 38.13 33 33.547 31.538 33 19.3 33 12.433 33 8 32.608 8 32c0-.61 4.615-1 11.845-1 10.205 0 12.074.253 13.5 1.829 1.685 1.861 2.223 7.775.89 9.771-2.42 3.623-9.233 4.402-12.235 1.4zm16-12.429c0-.785-.707-2.135-1.571-3C35.136 27.28 32.12 27 19.429 27 9.809 27 4 26.623 4 26c0-.625 5.987-1 15.961-1 15.132 0 16.067.114 18 2.189C40.091 29.476 40.722 33 39 33c-.55 0-1-.643-1-1.429zM0 21.055c0-.704 6.572-1.06 19.75-1.07 20.968-.015 23.88-.553 25.737-4.753.543-1.227 1.33-2.232 1.75-2.232 1.552 0 .811 3.08-1.649 5.694-.815.867-1.527 2.074-2.679 2.337-7.053 1.828-14.148 1.091-21.352 1.153C6.886 22.309 0 21.772 0 21.055zM6 14.5C6 13.23 8.422 13 21.8 13 38.765 13 40 12.658 40 7.955 40 4.849 37.23 2 34.21 2c-2.117 0-2.963.666-5.712 4.5-1.414 1.971-1.435 1.968-1.466-.25C26.988 3.143 30.424 0 33.865 0c7.484 0 11.21 9.436 5.5 13.927-2.406 1.893-3.97 2.073-18 2.073C8.374 16 6 15.768 6 14.5z" fill="#3c393a"/></svg>