<svg xmlns="http://www.w3.org/2000/svg" width="45.381" height="52.186" viewBox="0 0 42.545 48.924"><path d="M15.372 45.426C5.74 37.77 1.302 28.441.512 14.194L0 4.944h5.987c4.448 0 7.183-.636 10.637-2.472L21.273 0l4.648 2.472c3.454 1.836 6.189 2.472 10.637 2.472h5.987l-.513 9.25c-.569 10.27-2.8 17.32-7.503 23.715-3.428 4.662-11.074 11.015-13.256 11.015-.825 0-3.48-1.574-5.901-3.498zm10.457-1.732c8.497-6.493 13.131-16 14.14-29l.6-7.75h-5.333c-3.364 0-6.925-.771-9.648-2.09l-4.315-2.089-4.316 2.09c-2.723 1.318-6.284 2.089-9.648 2.089H1.976l.6 7.75c.71 9.141 2.618 15.08 6.83 21.25 2.536 3.713 10.26 10.923 11.769 10.984.22.009 2.315-1.447 4.654-3.234zm-5.681-18.818c-.096-8.611.02-9.047-1.875-8.432-2.932.95-3.905-.628.547-2.34 1.436-.552 2.75-1.16 3-1.16.249 0 .27 4.725.234 10.5-.063 9.951.51 10.012-.813 10.031-1.218.017-1-.127-1.093-8.599z" fill="#312d2e"/></svg>