<svg xmlns="http://www.w3.org/2000/svg" width="60.237" height="62.845" viewBox="0 0 56.472 58.918"><path d="M1.434 53.336c-.806-6.45.055-17.25 2.084-26.156 1.354-5.941 1.31-6.472-1.053-12.75L0 7.88h5.817c4.972 0 6.17-.376 8.242-2.595 7.87-8.425 17.701-6.66 24.836 4.46 2.96 4.61 3.421 4.913 8.2 5.372 3.71.357 5.764 1.185 7.675 3.096l1.702 2.421c-.068 3.868.094 7.69-.349 11.634-1.677 14.923-2.657 18.478-5.629 19.608-1.568.596-2.477 1.848-2.69 3.702l-.321 2.802-22.676.269-22.676.269zm43.95-8.456c-.105-12.358-1.764-20.736-5.888-29.75l-2.403-5.25H12.255L9.65 15.688C5.099 25.828 2.032 44.294 3.478 52.85l.687 4.07 20.66-.27 20.658-.27-.099-11.5zm-20.401 3.5c0-1.833-.534-2.5-2-2.5-1.1 0-2-.45-2-1s.9-1 2-1c1.466 0 2-.666 2-2.5 0-1.555-.567-2.5-1.5-2.5-.825 0-1.5-.45-1.5-1s.675-1 1.5-1c.833 0 1.5-.888 1.5-2 0-1.333-.667-2-2-2-1.1 0-2-.45-2-1s.9-1 2-1c1.466 0 2-.666 2-2.5 0-1.555-.567-2.5-1.5-2.5-.825 0-1.5-.45-1.5-1s.675-1 1.5-1 1.5-.675 1.5-1.5.45-1.5 1-1.5c.622 0 1 5.667 1 15 0 9.334-.378 15-1 15-.55 0-1-1.125-1-2.5zm26.423.624c.298-.482 1.312-6.795 2.253-14.028 1.699-13.06 1.696-13.168-.336-15.2-1.126-1.126-3.987-2.307-6.36-2.625-3.94-.529-4.249-.414-3.575 1.325 2.072 5.35 3.714 13.861 4.273 22.154.442 6.565.998 9.25 1.914 9.25.71 0 1.533-.394 1.831-.876zM8.281 13.38l1.67-3.5H3.17l1.074 3.5c.591 1.925 1.366 3.5 1.721 3.5.356 0 1.398-1.575 2.316-3.5zM34.06 6.473c-.642-.775-2.766-2.167-4.72-3.094-4.465-2.118-9.213-1.345-12.37 2.017L14.633 7.88H24.93c8.74 0 10.12-.212 9.128-1.407z" fill="#2f2c2d"/></svg>