<svg xmlns="http://www.w3.org/2000/svg" width="43.642" height="62.966" viewBox="0 0 40.914 59.031"><path d="M10 57.254c0-.978.75-2.85 1.669-4.16 1.608-2.297 1.57-2.461-1.086-4.578-3.4-2.711-6.568-7.4-6.576-9.735-.006-1.468.919-1.745 5.743-1.718 3.462.019 6.522.616 7.691 1.5 1.068.807 3.846 1.468 6.173 1.468 8.395 0 13.457-7.834 9.902-15.325-.919-1.936-2.254-3.744-2.968-4.018-.713-.274-3.02 1.266-5.126 3.423-2.105 2.156-4.32 3.92-4.922 3.92-.602 0-2.858-1.806-5.013-4.013l-3.919-4.014 8.908-8.95c6.202-6.23 9.26-8.657 10.064-7.99.78.647 1.75.304 2.977-1.052L35.338 0l2.33 2.188c2.162 2.032 2.213 2.317.71 3.979-.933 1.03-1.344 2.511-.968 3.49.426 1.11-.29 2.684-2.066 4.537l-2.718 2.837 2.634 2.75c7.858 8.204 7.486 20.133-.866 27.783-3.476 3.184-3.554 3.401-2.005 5.612.886 1.265 1.611 3.1 1.611 4.078 0 1.604-1.167 1.777-12 1.777s-12-.173-12-1.777zm21.027-2.172c-.573-1.071-1.96-2.591-3.082-3.377-1.969-1.379-1.885-1.52 2.412-4.037 5.978-3.503 9.162-9.835 8.259-16.422-.77-5.614-2.307-7.68-1.814-2.439.696 7.402-7.474 14.955-14.802 13.684-1.925-.335-4.497-1.25-5.715-2.034C13.405 38.602 7 38.553 7 40.385c0 1.921 4.15 6.155 7.97 8.13 3.205 1.658 3.219 1.695 1.145 3.148-1.155.809-2.569 2.348-3.142 3.42-1.002 1.871-.645 1.948 9.027 1.948 9.672 0 10.03-.077 9.027-1.949zm-2.71-36.866c4.93-4.969 6.583-7.282 6.101-8.537-.39-1.016.03-2.486 1.026-3.586.927-1.025 1.267-2.122.755-2.44-.513-.316-1.735.313-2.717 1.398-1.204 1.33-2.163 1.66-2.944 1.012-.806-.67-3.404 1.3-8.547 6.477l-7.389 7.439 2.373 2.526c1.306 1.39 2.87 2.526 3.476 2.526.607 0 4.146-3.067 7.865-6.815zM0 35.031c0-.603-.03-.993 10.5-1 10.5-.007 10.5.397 10.5 1s-.015 1.035-10.5 1c-10.485-.035-10.5-.397-10.5-1z" fill="#343031"/></svg>