<svg xmlns="http://www.w3.org/2000/svg" width="40.537" height="38.414" viewBox="0 0 38.004 36.013"><path d="M.002 32.006c.015-3.968.031-3.977 1-4 .952-.022.976.04 1 3 .02 2.533.388 2.993 2.5 3 2.472.008 2.493.103 2.5 1 .007.906.01.945-3.5 1-3.417.054-3.516-.095-3.5-4zm31 3c-.013-.851.02-.933 2.5-1 2.11-.057 2.519-.467 2.5-3-.023-2.967-.053-3.011 1-3 .951.01.977.048 1 4 .022 3.905-.084 4.022-3.5 4-3.488-.022-3.486-.026-3.5-1zm-26-17v-13h28v26h-28zm26 0v-11h-24v22h24zm-31-14c.015-3.905.083-4.048 3.5-4 3.345.048 3.492.056 3.5 1 .008 1.008-.004 1.032-2.5 1-2.111-.027-2.5.467-2.5 3 0 2.865.008 3.025-1 3-.93-.023-1.016-.08-1-4zm36 1c-.086-2.532-.39-2.962-2.5-3-2.458-.044-2.463-.116-2.5-1-.04-.963.034-.978 3.5-1 3.416-.022 3.521.095 3.5 4-.023 4.02-.082 3.989-1 4-.83.01-.9-.044-1-3z" fill="#221e1f"/></svg>