<svg xmlns="http://www.w3.org/2000/svg" width="40.533" height="49.067" viewBox="0 0 38 46"><path d="M0 29.5V13h6c6 0 6 0 6-3 0-2.762-.278-3-3.5-3C5.167 7 5 6.833 5 3.5V0h28v3.5c0 3.333-.167 3.5-3.5 3.5-3.222 0-3.5.238-3.5 3 0 3 0 3 6 3h6v33H0V29.5zm36 0V15H24V5h3.5c2.444 0 3.5-.452 3.5-1.5C31 2.25 29 2 19 2S7 2.25 7 3.5C7 4.548 8.056 5 10.5 5H14v10H2v29h34V29.5zM11 29c0-2.75.45-5 1-5s1 .95 1 2.11c0 2.061.045 2.055 1.914-.25 2.231-2.752 3.813-1.996 1.976.945-1.032 1.652-.954 2.449.454 4.597C18.76 33.563 18.8 34 17.59 34c-.8 0-1.74-.9-2.09-2-.35-1.1-1.054-2-1.567-2-.513 0-.933.9-.933 2s-.45 2-1 2-1-2.25-1-5zm9.2 3.8c-.66-.66-1.2-2.444-1.2-3.965C19 25.892 21.322 24 24.934 24c3.071 0 2.502 1.817-.684 2.184-2.178.25-2.75.833-2.75 2.802 0 1.646.641 2.61 1.896 2.852 1.396.269 1.734-.057 1.281-1.237-.391-1.02-.082-1.601.854-1.601.9 0 1.469.968 1.469 2.5 0 2.071-.48 2.5-2.8 2.5-1.54 0-3.34-.54-4-1.2z" fill="#242021"/></svg>